<svg height="480pt" viewBox="0 -56 480 480" width="480pt" xmlns="http://www.w3.org/2000/svg"><path d="m408 280h48c8.835938 0 16 7.164062 16 16v48c0 8.835938-7.164062 16-16 16h-48c-8.835938 0-16-7.164062-16-16v-48c0-8.835938 7.164062-16 16-16zm0 0" fill="#bddbff"/><path d="m408 144h48c8.835938 0 16 7.164062 16 16v48c0 8.835938-7.164062 16-16 16h-48c-8.835938 0-16-7.164062-16-16v-48c0-8.835938 7.164062-16 16-16zm0 0" fill="#bddbff"/><path d="m408 8h48c8.835938 0 16 7.164062 16 16v48c0 8.835938-7.164062 16-16 16h-48c-8.835938 0-16-7.164062-16-16v-48c0-8.835938 7.164062-16 16-16zm0 0" fill="#bddbff"/><path d="m262.640625 161.359375c10.832031 10.804687 12.523437 27.761719 4.035156 40.492187-8.488281 12.730469-24.789062 17.691407-38.925781 11.84375-14.140625-5.847656-22.179688-20.867187-19.199219-35.875 2.976563-15.011718 16.148438-25.820312 31.449219-25.820312 8.484375.015625 16.621094 3.378906 22.640625 9.359375zm0 0" fill="#bddbff"/><path d="m24 280h48c8.835938 0 16 7.164062 16 16v48c0 8.835938-7.164062 16-16 16h-48c-8.835938 0-16-7.164062-16-16v-48c0-8.835938 7.164062-16 16-16zm0 0" fill="#bddbff"/><path d="m24 144h48c8.835938 0 16 7.164062 16 16v48c0 8.835938-7.164062 16-16 16h-48c-8.835938 0-16-7.164062-16-16v-48c0-8.835938 7.164062-16 16-16zm0 0" fill="#bddbff"/><path d="m24 8h48c8.835938 0 16 7.164062 16 16v48c0 8.835938-7.164062 16-16 16h-48c-8.835938 0-16-7.164062-16-16v-48c0-8.835938 7.164062-16 16-16zm0 0" fill="#bddbff"/><path d="m136 312h208v16c0 17.671875-14.328125 32-32 32h-144c-17.671875 0-32-14.328125-32-32zm0 0" fill="#bddbff"/><path d="m168 8h144c17.671875 0 32 14.328125 32 32v16h-208v-16c0-17.671875 14.328125-32 32-32zm0 0" fill="#bddbff"/><g fill="#3d9ae2"><path d="m216 328h48v16h-48zm0 0"/><path d="m176 24h16v16h-16zm0 0"/><path d="m208 24h32v16h-32zm0 0"/><path d="m273.335938 161.976562 11.921874-11.921874-11.3125-11.3125-11.921874 11.921874c-4.253907-2.839843-9.015626-4.828124-14.023438-5.863281v-16.800781h-16v16.800781c-5.007812 1.03125-9.769531 3.019531-14.023438 5.855469l-11.921874-11.921875-11.3125 11.3125 11.921874 11.921875c-2.839843 4.253906-4.832031 9.019531-5.863281 14.03125h-16.800781v16h16.800781c1.03125 5.007812 3.019531 9.769531 5.855469 14.023438l-11.921875 11.921874 11.3125 11.3125 11.921875-11.921874c4.253906 2.839843 9.019531 4.832031 14.03125 5.863281v16.800781h16v-16.800781c5.007812-1.03125 9.769531-3.019531 14.023438-5.855469l11.921874 11.921875 11.3125-11.3125-11.921874-11.921875c2.839843-4.253906 4.832031-9.019531 5.863281-14.03125h16.800781v-16h-16.800781c-1.03125-5.007812-3.023438-9.769531-5.863281-14.023438zm-33.335938 46.023438c-13.253906 0-24-10.746094-24-24s10.746094-24 24-24 24 10.746094 24 24-10.746094 24-24 24zm0 0"/><path d="m456 0h-48c-13.253906 0-24 10.746094-24 24v48c0 13.253906 10.746094 24 24 24h48c13.253906 0 24-10.746094 24-24v-48c0-13.253906-10.746094-24-24-24zm8 72c0 4.417969-3.582031 8-8 8h-48c-4.417969 0-8-3.582031-8-8v-48c0-4.417969 3.582031-8 8-8h48c4.417969 0 8 3.582031 8 8zm0 0"/><path d="m456 136h-48c-13.253906 0-24 10.746094-24 24v48c0 13.253906 10.746094 24 24 24h48c13.253906 0 24-10.746094 24-24v-48c0-13.253906-10.746094-24-24-24zm8 72c0 4.417969-3.582031 8-8 8h-48c-4.417969 0-8-3.582031-8-8v-48c0-4.417969 3.582031-8 8-8h48c4.417969 0 8 3.582031 8 8zm0 0"/><path d="m456 272h-48c-13.253906 0-24 10.746094-24 24v48c0 13.253906 10.746094 24 24 24h48c13.253906 0 24-10.746094 24-24v-48c0-13.253906-10.746094-24-24-24zm8 72c0 4.417969-3.582031 8-8 8h-48c-4.417969 0-8-3.582031-8-8v-48c0-4.417969 3.582031-8 8-8h48c4.417969 0 8 3.582031 8 8zm0 0"/><path d="m72 0h-48c-13.253906 0-24 10.746094-24 24v48c0 13.253906 10.746094 24 24 24h48c13.253906 0 24-10.746094 24-24v-48c0-13.253906-10.746094-24-24-24zm8 72c0 4.417969-3.582031 8-8 8h-48c-4.417969 0-8-3.582031-8-8v-48c0-4.417969 3.582031-8 8-8h48c4.417969 0 8 3.582031 8 8zm0 0"/><path d="m72 136h-48c-13.253906 0-24 10.746094-24 24v48c0 13.253906 10.746094 24 24 24h48c13.253906 0 24-10.746094 24-24v-48c0-13.253906-10.746094-24-24-24zm8 72c0 4.417969-3.582031 8-8 8h-48c-4.417969 0-8-3.582031-8-8v-48c0-4.417969 3.582031-8 8-8h48c4.417969 0 8 3.582031 8 8zm0 0"/><path d="m72 272h-48c-13.253906 0-24 10.746094-24 24v48c0 13.253906 10.746094 24 24 24h48c13.253906 0 24-10.746094 24-24v-48c0-13.253906-10.746094-24-24-24zm8 72c0 4.417969-3.582031 8-8 8h-48c-4.417969 0-8-3.582031-8-8v-48c0-4.417969 3.582031-8 8-8h48c4.417969 0 8 3.582031 8 8zm0 0"/><path d="m373.65625 61.65625-11.3125-11.3125-10.34375 10.34375v-20.6875c-.027344-22.082031-17.917969-39.9726562-40-40h-144c-22.082031.0273438-39.972656 17.917969-40 40v20.6875l-10.34375-10.34375-11.3125 11.3125 21.65625 21.65625v92.6875h-16v16h16v92.6875l-21.65625 21.65625 11.3125 11.3125 10.34375-10.34375v20.6875c.027344 22.082031 17.917969 39.972656 40 40h144c22.082031-.027344 39.972656-17.917969 40-40v-20.6875l10.34375 10.34375 11.3125-11.3125-21.65625-21.65625v-92.6875h16v-16h-16v-92.6875zm-205.65625-45.65625h144c13.253906 0 24 10.746094 24 24v8h-192v-8c0-13.253906 10.746094-24 24-24zm144 336h-144c-13.253906 0-24-10.746094-24-24v-8h192v8c0 13.253906-10.746094 24-24 24zm24-176h-24v16h24v76.6875l-34.34375-34.34375-11.3125 11.3125 45.65625 45.65625v12.6875h-192v-12.6875l45.65625-45.65625-11.3125-11.3125-34.34375 34.34375v-76.6875h24v-16h-24v-76.6875l34.34375 34.34375 11.3125-11.3125-45.65625-45.65625v-12.6875h192v12.6875l-45.65625 45.65625 11.3125 11.3125 34.34375-34.34375zm0 0"/></g></svg>