<svg height="480pt" viewBox="0 0 480 480" width="480pt" xmlns="http://www.w3.org/2000/svg"><path d="m328 448v24h-176v-24c0-4.417969 3.582031-8 8-8h160c4.417969 0 8 3.582031 8 8zm0 0" fill="#bddbff"/><path d="m296 376 8 64h-128l8-64zm0 0" fill="#bddbff"/><path d="m472 312v32c0 17.671875-14.328125 32-32 32h-400c-17.671875 0-32-14.328125-32-32v-32zm0 0" fill="#bddbff"/><path d="m424 168v16l-25.839844 5.199219c-1.03125 3.507812-2.453125 6.890625-4.238281 10.082031l14.636719 22-11.277344 11.277344-22-14.636719c-3.191406 1.785156-6.574219 3.207031-10.082031 4.238281l-5.199219 25.839844h-16l-5.199219-25.839844c-3.507812-1.03125-6.890625-2.453125-10.082031-4.238281l-22 14.636719-11.277344-11.277344 14.636719-22c-1.785156-3.191406-3.207031-6.574219-4.238281-10.082031l-25.839844-5.199219v-16l25.839844-5.199219c1.03125-3.507812 2.453125-6.890625 4.238281-10.082031l-14.636719-22 11.277344-11.277344 22 14.636719c3.191406-1.785156 6.574219-3.207031 10.082031-4.238281l5.199219-25.839844h16l5.199219 25.839844c3.507812 1.03125 6.890625 2.453125 10.082031 4.238281l22-14.636719 11.277344 11.277344-14.636719 22c1.785156 3.191406 3.207031 6.574219 4.238281 10.082031zm-56 8c0-8.835938-7.164062-16-16-16s-16 7.164062-16 16 7.164062 16 16 16c8.824219-.027344 15.972656-7.175781 16-16zm0 0" fill="#bddbff"/><path d="m72 8h272c8.824219.027344 15.972656 7.175781 16 16v32h-304v-32c.027344-8.824219 7.175781-15.972656 16-16zm0 0" fill="#bddbff"/><g fill="#3d9ae2"><path d="m440 64h-72v-40c0-13.253906-10.746094-24-24-24h-272c-13.253906 0-24 10.746094-24 24v40h-8c-22.082031.027344-39.9726562 17.917969-40 40v240c.0273438 22.082031 17.917969 39.972656 40 40h134.9375l-6 48h-8.9375c-8.835938 0-16 7.164062-16 16v16h-16v16h224v-16h-16v-16c0-8.835938-7.164062-16-16-16h-8.9375l-6-48h134.9375c22.082031-.027344 39.972656-17.917969 40-40v-240c-.027344-22.082031-17.917969-39.972656-40-40zm-368-48h272c4.417969 0 8 3.582031 8 8v24h-288v-24c0-4.417969 3.582031-8 8-8zm-32 64h8v184c0 13.253906 10.746094 24 24 24h272c13.253906 0 24-10.746094 24-24h-16c0 4.417969-3.582031 8-8 8h-272c-4.417969 0-8-3.582031-8-8v-200h288v24h16v-8h72c13.253906 0 24 10.746094 24 24v200h-448v-200c0-13.253906 10.746094-24 24-24zm280 384h-160v-16h160zm-25.0625-32h-109.875l6-48h97.875zm145.0625-64h-400c-13.253906 0-24-10.746094-24-24v-24h448v24c0 13.253906-10.746094 24-24 24zm0 0"/><path d="m424 336h16v16h-16zm0 0"/><path d="m80 24h16v16h-16zm0 0"/><path d="m112 24h16v16h-16zm0 0"/><path d="m144 24h16v16h-16zm0 0"/><path d="m374.726562 227.199219 18.074219 12c3.171875 2.117187 7.398438 1.699219 10.09375-1l11.3125-11.3125c2.691407-2.695313 3.105469-6.917969.992188-10.085938l-12-18.074219c.375-.863281.738281-1.734374 1.074219-2.613281l21.328124-4.273437c3.722657-.761719 6.398438-4.039063 6.398438-7.839844v-16c0-3.800781-2.675781-7.078125-6.398438-7.839844l-21.328124-4.273437c-.335938-.878907-.699219-1.75-1.074219-2.613281l12-18.074219c2.117187-3.171875 1.699219-7.398438-1-10.09375l-11.3125-11.3125c-2.695313-2.691407-6.917969-3.105469-10.085938-.992188l-18.074219 12c-.863281-.375-1.734374-.738281-2.613281-1.074219l-4.273437-21.328124c-.761719-3.722657-4.039063-6.398438-7.839844-6.398438h-16c-3.800781 0-7.078125 2.675781-7.839844 6.398438l-4.273437 21.328124c-.878907.335938-1.75.699219-2.613281 1.074219l-18.074219-12c-3.171875-2.117187-7.398438-1.699219-10.09375 1l-11.3125 11.3125c-2.691407 2.695313-3.105469 6.917969-.992188 10.085938l12 18.074219c-.375.863281-.738281 1.734374-1.074219 2.613281l-21.328124 4.273437c-3.722657.761719-6.398438 4.039063-6.398438 7.839844v16c0 3.800781 2.675781 7.078125 6.398438 7.839844l21.328124 4.273437c.335938.878907.699219 1.75 1.074219 2.613281l-12 18.074219c-2.117187 3.171875-1.699219 7.398438 1 10.09375l11.3125 11.3125c2.695313 2.691407 6.917969 3.105469 10.085938.992188l18.074219-12c.863281.375 1.734374.738281 2.613281 1.074219l4.273437 21.328124c.761719 3.722657 4.039063 6.398438 7.839844 6.398438h16c3.800781 0 7.078125-2.675781 7.839844-6.398438l4.273437-21.328124c.878907-.371094 1.75-.730469 2.613281-1.074219zm-11.742187-12.800781c-2.878906.824218-5.058594 3.183593-5.648437 6.121093l-3.894532 19.480469h-2.882812l-3.894532-19.449219c-.589843-2.933593-2.769531-5.296875-5.648437-6.117187-2.9375-.832032-5.769531-2-8.441406-3.480469-2.617188-1.457031-5.832031-1.328125-8.328125.335937l-16.476563 10.984376-2.042969-2.042969 10.984376-16.476563c1.664062-2.496094 1.792968-5.710937.335937-8.328125-1.480469-2.671875-2.648437-5.503906-3.480469-8.441406-.820312-2.878906-3.183594-5.058594-6.117187-5.648437l-19.449219-3.894532v-2.882812l19.449219-3.894532c2.933593-.589843 5.296875-2.769531 6.117187-5.648437.832032-2.9375 2-5.769531 3.480469-8.441406 1.457031-2.617188 1.328125-5.832031-.335937-8.328125l-10.984376-16.476563 2.042969-2.042969 16.476563 10.984376c2.496094 1.664062 5.710937 1.792968 8.328125.335937 2.671875-1.480469 5.503906-2.648437 8.441406-3.480469 2.878906-.820312 5.058594-3.183594 5.648437-6.117187l3.894532-19.449219h2.882812l3.894532 19.449219c.589843 2.933593 2.769531 5.296875 5.648437 6.117187 2.9375.832032 5.769531 2 8.441406 3.480469 2.617188 1.457031 5.832031 1.328125 8.328125-.335937l16.476563-10.984376 2.042969 2.042969-10.984376 16.476563c-1.664062 2.496094-1.792968 5.710937-.335937 8.328125 1.480469 2.671875 2.648437 5.503906 3.480469 8.441406.820312 2.878906 3.183594 5.058594 6.117187 5.648437l19.449219 3.894532v2.882812l-19.449219 3.894532c-2.933593.589843-5.296875 2.769531-6.117187 5.648437-.832032 2.9375-2 5.769531-3.480469 8.441406-1.457031 2.617188-1.328125 5.832031.335937 8.328125l10.984376 16.476563-2.042969 2.042969-16.476563-10.984376c-2.496094-1.664062-5.710937-1.792968-8.328125-.335937-2.671875 1.46875-5.503906 2.625-8.441406 3.445313zm0 0"/><path d="m352 152c-13.253906 0-24 10.746094-24 24s10.746094 24 24 24 24-10.746094 24-24-10.746094-24-24-24zm0 32c-4.417969 0-8-3.582031-8-8s3.582031-8 8-8 8 3.582031 8 8-3.582031 8-8 8zm0 0"/><path d="m104 80h16v48h-16zm0 0"/><path d="m184 80h16v48h-16zm0 0"/><path d="m160 144h16v48h-16zm0 0"/><path d="m184 144h16v48h-16zm0 0"/><path d="m208 80h16v48h-16zm0 0"/><path d="m232 80h16v48h-16zm0 0"/><path d="m104 208h16v48h-16zm0 0"/><path d="m208 208h16v48h-16zm0 0"/><path d="m232 208h16v48h-16zm0 0"/><path d="m128 208h16v48h-16zm0 0"/><path d="m152 128c13.253906 0 24-10.746094 24-24s-10.746094-24-24-24-24 10.746094-24 24 10.746094 24 24 24zm0-32c4.417969 0 8 3.582031 8 8s-3.582031 8-8 8-8-3.582031-8-8 3.582031-8 8-8zm0 0"/><path d="m128 144c-13.253906 0-24 10.746094-24 24s10.746094 24 24 24 24-10.746094 24-24-10.746094-24-24-24zm0 32c-4.417969 0-8-3.582031-8-8s3.582031-8 8-8 8 3.582031 8 8-3.582031 8-8 8zm0 0"/><path d="m176 208c-13.253906 0-24 10.746094-24 24s10.746094 24 24 24 24-10.746094 24-24-10.746094-24-24-24zm0 32c-4.417969 0-8-3.582031-8-8s3.582031-8 8-8 8 3.582031 8 8-3.582031 8-8 8zm0 0"/><path d="m232 144c-13.253906 0-24 10.746094-24 24s10.746094 24 24 24 24-10.746094 24-24-10.746094-24-24-24zm0 32c-4.417969 0-8-3.582031-8-8s3.582031-8 8-8 8 3.582031 8 8-3.582031 8-8 8zm0 0"/></g></svg>