<svg height="480pt" viewBox="0 -63 480 479" width="480pt" xmlns="http://www.w3.org/2000/svg"><path d="m32 296.5h440v32c-.027344 8.824219-7.175781 15.972656-16 16h-432c-8.824219-.027344-15.972656-7.175781-16-16v-32zm0 0" fill="#bddbff"/><g fill="#3d9ae2"><path d="m472 288.5h-16v-248c-.027344-22.082031-17.917969-39.972656-40-40h-352c-22.082031.027344-39.972656 17.917969-40 40v248h-16c-4.417969 0-8 3.582031-8 8v32c0 13.253906 10.746094 24 24 24h432c13.253906 0 24-10.746094 24-24v-32c0-4.417969-3.582031-8-8-8zm-432-248c0-13.253906 10.746094-24 24-24h352c13.253906 0 24 10.746094 24 24v248h-400zm424 288c0 4.417969-3.582031 8-8 8h-432c-4.417969 0-8-3.582031-8-8v-24h448zm0 0"/><path d="m208 312.5h64v16h-64zm0 0"/><path d="m80 48.5h16v48h-16zm0 0"/><path d="m168 48.5h16v48h-16zm0 0"/><path d="m200 48.5h16v48h-16zm0 0"/><path d="m80 112.5h16v48h-16zm0 0"/><path d="m112 112.5h16v48h-16zm0 0"/><path d="m144 112.5h16v48h-16zm0 0"/><path d="m376 48.5h16v48h-16zm0 0"/><path d="m232 48.5h16v48h-16zm0 0"/><path d="m232 112.5h16v48h-16zm0 0"/><path d="m376 112.5h16v48h-16zm0 0"/><path d="m128 96.5h8c8.835938 0 16-7.164062 16-16v-16c0-8.835938-7.164062-16-16-16h-8c-8.835938 0-16 7.164062-16 16v16c0 8.835938 7.164062 16 16 16zm0-32h8v16h-8zm0 0"/><path d="m176 128.5v16c0 8.835938 7.164062 16 16 16h8c8.835938 0 16-7.164062 16-16v-16c0-8.835938-7.164062-16-16-16h-8c-8.835938 0-16 7.164062-16 16zm16 0h8v16h-8zm0 0"/><path d="m280 96.5h8c8.835938 0 16-7.164062 16-16v-16c0-8.835938-7.164062-16-16-16h-8c-8.835938 0-16 7.164062-16 16v16c0 8.835938 7.164062 16 16 16zm0-32h8v16h-8zm0 0"/><path d="m280 160.5h8c8.835938 0 16-7.164062 16-16v-16c0-8.835938-7.164062-16-16-16h-8c-8.835938 0-16 7.164062-16 16v16c0 8.835938 7.164062 16 16 16zm0-32h8v16h-8zm0 0"/><path d="m336 160.5h8c8.835938 0 16-7.164062 16-16v-16c0-8.835938-7.164062-16-16-16h-8c-8.835938 0-16 7.164062-16 16v16c0 8.835938 7.164062 16 16 16zm0-32h8v16h-8zm0 0"/><path d="m376 176.5h16v48h-16zm0 0"/><path d="m344 176.5h16v48h-16zm0 0"/><path d="m312 176.5h16v48h-16zm0 0"/><path d="m224 176.5h16v48h-16zm0 0"/><path d="m80 176.5h16v48h-16zm0 0"/><path d="m272 224.5h8c8.835938 0 16-7.164062 16-16v-16c0-8.835938-7.164062-16-16-16h-8c-8.835938 0-16 7.164062-16 16v16c0 8.835938 7.164062 16 16 16zm0-32h8v16h-8zm0 0"/><path d="m184 224.5h8c8.835938 0 16-7.164062 16-16v-16c0-8.835938-7.164062-16-16-16h-8c-8.835938 0-16 7.164062-16 16v16c0 8.835938 7.164062 16 16 16zm0-32h8v16h-8zm0 0"/><path d="m128 224.5h8c8.835938 0 16-7.164062 16-16v-16c0-8.835938-7.164062-16-16-16h-8c-8.835938 0-16 7.164062-16 16v16c0 8.835938 7.164062 16 16 16zm0-32h8v16h-8zm0 0"/><path d="m336 96.5h8c8.835938 0 16-7.164062 16-16v-16c0-8.835938-7.164062-16-16-16h-8c-8.835938 0-16 7.164062-16 16v16c0 8.835938 7.164062 16 16 16zm0-32h8v16h-8zm0 0"/><path d="m56 240.5h368v16h-368zm0 0"/></g></svg>