<svg height="480pt" viewBox="0 0 480 480" width="480pt" xmlns="http://www.w3.org/2000/svg"><path d="m32 424h440v32c-.027344 8.824219-7.175781 15.972656-16 16h-432c-8.824219-.027344-15.972656-7.175781-16-16v-32zm0 0" fill="#bddbff"/><g fill="#3d9ae2"><path d="m472 416h-16v-248c-.027344-22.082031-17.917969-39.972656-40-40v16c13.253906 0 24 10.746094 24 24v248h-400v-248c0-13.253906 10.746094-24 24-24h216v-16h-216c-22.082031.027344-39.972656 17.917969-40 40v248h-16c-4.417969 0-8 3.582031-8 8v32c0 13.253906 10.746094 24 24 24h432c13.253906 0 24-10.746094 24-24v-32c0-4.417969-3.582031-8-8-8zm-8 40c0 4.417969-3.582031 8-8 8h-432c-4.417969 0-8-3.582031-8-8v-24h448zm0 0"/><path d="m208 440h64v16h-64zm0 0"/><path d="m120 48c13.253906 0 24-10.746094 24-24s-10.746094-24-24-24-24 10.746094-24 24 10.746094 24 24 24zm0-32c4.417969 0 8 3.582031 8 8s-3.582031 8-8 8-8-3.582031-8-8 3.582031-8 8-8zm0 0"/><path d="m64 0h16v48h-16zm0 0"/><path d="m160 0h16v48h-16zm0 0"/><path d="m216 96c13.253906 0 24-10.746094 24-24s-10.746094-24-24-24-24 10.746094-24 24 10.746094 24 24 24zm0-32c4.417969 0 8 3.582031 8 8s-3.582031 8-8 8-8-3.582031-8-8 3.582031-8 8-8zm0 0"/><path d="m296 200c0-13.253906-10.746094-24-24-24s-24 10.746094-24 24 10.746094 24 24 24 24-10.746094 24-24zm-32 0c0-4.417969 3.582031-8 8-8s8 3.582031 8 8-3.582031 8-8 8-8-3.582031-8-8zm0 0"/><path d="m272 328c0 13.253906 10.746094 24 24 24s24-10.746094 24-24-10.746094-24-24-24-24 10.746094-24 24zm32 0c0 4.417969-3.582031 8-8 8s-8-3.582031-8-8 3.582031-8 8-8 8 3.582031 8 8zm0 0"/><path d="m376 160c13.253906 0 24-10.746094 24-24s-10.746094-24-24-24-24 10.746094-24 24 10.746094 24 24 24zm0-32c4.417969 0 8 3.582031 8 8s-3.582031 8-8 8-8-3.582031-8-8 3.582031-8 8-8zm0 0"/><path d="m256 48h16v48h-16zm0 0"/><path d="m288 48h16v48h-16zm0 0"/><path d="m184 176h16v48h-16zm0 0"/><path d="m216 176h16v48h-16zm0 0"/><path d="m104 264c0 13.253906 10.746094 24 24 24s24-10.746094 24-24-10.746094-24-24-24-24 10.746094-24 24zm32 0c0 4.417969-3.582031 8-8 8s-8-3.582031-8-8 3.582031-8 8-8 8 3.582031 8 8zm0 0"/><path d="m72 240h16v48h-16zm0 0"/><path d="m168 240h16v48h-16zm0 0"/><path d="m240 304h16v48h-16zm0 0"/><path d="m336 304h16v48h-16zm0 0"/><path d="m368 304h16v48h-16zm0 0"/><path d="m296 112h16v48h-16zm0 0"/><path d="m328 112h16v48h-16zm0 0"/></g></svg>