<svg height="480pt" viewBox="0 0 480 480" width="480pt" xmlns="http://www.w3.org/2000/svg"><path d="m312 232v176c-22.855469.027344-43.976562-12.179688-55.359375-32-5.695313-9.699219-8.679687-20.753906-8.640625-32v-48c-.035156-13.058594 3.992188-25.808594 11.519531-36.480469 3.453125-5.089843 7.660157-9.621093 12.480469-13.441406 11.335938-9.121094 25.449219-14.089844 40-14.078125zm0 0" fill="#bddbff"/><path d="m312 408v-176c14.550781-.011719 28.664062 4.957031 40 14.078125 1.851562 1.441406 3.617188 2.988281 5.28125 4.640625 2.679688 2.695312 5.089844 5.640625 7.199219 8.800781 7.527343 10.671875 11.554687 23.421875 11.519531 36.480469v48c.039062 11.246094-2.945312 22.300781-8.640625 32-11.382813 19.820312-32.503906 32.027344-55.359375 32zm0 0" fill="#bddbff"/><path d="m352 224v22.078125c-23.363281-18.773437-56.636719-18.773437-80 0v-22.078125c.011719-12.585938 5.9375-24.4375 16-32 14.222656-10.667969 33.777344-10.667969 48 0 1.53125 1.117188 2.976562 2.347656 4.320312 3.679688 7.480469 7.527343 11.679688 17.707031 11.679688 28.320312zm0 0" fill="#bddbff"/><path d="m472 40v32h-464v-32c0-17.671875 14.328125-32 32-32h400c17.671875 0 32 14.328125 32 32zm0 0" fill="#bddbff"/><g fill="#3d9ae2"><path d="m440 0h-400c-22.082031.0273438-39.9726562 17.917969-40 40v400c.0273438 22.082031 17.917969 39.972656 40 40h400c22.082031-.027344 39.972656-17.917969 40-40v-400c-.027344-22.082031-17.917969-39.9726562-40-40zm-400 16h400c13.253906 0 24 10.746094 24 24v24h-448v-24c0-13.253906 10.746094-24 24-24zm400 448h-400c-13.253906 0-24-10.746094-24-24v-360h448v360c0 13.253906-10.746094 24-24 24zm0 0"/><path d="m48 32h16v16h-16zm0 0"/><path d="m80 32h16v16h-16zm0 0"/><path d="m112 32h16v16h-16zm0 0"/><path d="m176 32h224v16h-224zm0 0"/><path d="m384 320h20.6875l21.65625 21.65625 11.3125-11.3125-24-24c-1.5-1.5-3.535156-2.34375-5.65625-2.34375h-24v-8c0-12.390625-3.21875-24.570312-9.34375-35.34375l28.65625-28.65625h28.6875v-16h-32c-2.121094 0-4.15625.84375-5.65625 2.34375l-29.222656 29.222656c-1.601563-1.773437-3.308594-3.46875-5.121094-5.078125v-18.488281c0-11.917969-4.441406-23.410156-12.457031-32.230469l15.769531-15.769531h12.6875v-16h-16c-2.121094 0-4.15625.84375-5.65625 2.34375l-19.449219 19.449219c-14.277343-7.734375-31.496093-7.734375-45.773437 0l-19.464844-19.464844c-1.503906-1.496094-3.535156-2.332031-5.65625-2.328125h-16v16h12.6875l15.808594 15.808594c-8.035156 8.796875-12.492188 20.277344-12.496094 32.191406v18.488281c-1.792969 1.601563-3.5 3.292969-5.121094 5.078125l-29.222656-29.222656c-1.5-1.5-3.535156-2.34375-5.65625-2.34375h-32v16h28.6875l28.65625 28.65625c-6.125 10.773438-9.34375 22.953125-9.34375 35.34375v8h-24c-2.121094 0-4.15625.84375-5.65625 2.34375l-24 24 11.3125 11.3125 21.65625-21.65625h20.6875v24c.015625 8.179688 1.4375 16.300781 4.199219 24h-28.199219c-2.121094 0-4.15625.84375-5.65625 2.34375l-24 24 11.3125 11.3125 21.65625-21.65625h32.863281c13.339844 19.992188 35.789063 32 59.824219 32s46.484375-12.007812 59.824219-32h32.863281l21.65625 21.65625 11.3125-11.3125-24-24c-1.5-1.5-3.535156-2.34375-5.65625-2.34375h-28.199219c2.761719-7.699219 4.183594-15.820312 4.199219-24zm-104-96c0-17.671875 14.328125-32 32-32s32 14.328125 32 32v7.601562c-20.132812-10.128906-43.867188-10.128906-64 0zm-24 120v-48c.03125-27.8125 20.472656-51.386719 48-55.359375v158.71875c-27.527344-3.972656-47.96875-27.546875-48-55.359375zm64 55.359375v-158.71875c27.527344 3.972656 47.96875 27.546875 48 55.359375v48c-.03125 27.8125-20.472656 51.386719-48 55.359375zm0 0"/><path d="m77.65625 138.34375-10.34375-10.34375 10.34375-10.34375-11.3125-11.3125-16 16c-3.121094 3.125-3.121094 8.1875 0 11.3125l16 16zm0 0"/><path d="m117.65625 149.65625 16-16c3.121094-3.125 3.121094-8.1875 0-11.3125l-16-16-11.3125 11.3125 10.34375 10.34375-10.34375 10.34375zm0 0"/><path d="m64 168h32v16h-32zm0 0"/><path d="m112 168h64v16h-64zm0 0"/><path d="m96 200h64v16h-64zm0 0"/><path d="m80 232h64v16h-64zm0 0"/><path d="m104 264h80v16h-80zm0 0"/><path d="m64 296h32v16h-32zm0 0"/><path d="m112 296h64v16h-64zm0 0"/><path d="m64 328h32v16h-32zm0 0"/><path d="m112 328h48v16h-48zm0 0"/></g></svg>