<svg height="480pt" viewBox="0 -28 480.04466 480" width="480pt" xmlns="http://www.w3.org/2000/svg"><path d="m144.042969 208.015625h192c8.828125.027344 15.976562 7.175781 16 16v32h-224v-32c.027343-8.824219 7.175781-15.972656 16-16zm0 0" fill="#bddbff"/><path d="m392.042969 136.015625c44.183593 0 80 35.816406 80 80s-35.816407 80-80 80h-40v-72c-.023438-8.824219-7.171875-15.972656-16-16h-192c-8.824219.027344-15.972657 7.175781-16 16v72h-40c-44.179688 0-80-35.816406-80-80s35.820312-80 80-80c.960937 0 1.921875.078125 2.960937.160156-12.488281-52.023437 16.574219-105.023437 67.148438-122.46875 50.578125-17.445312 106.132812 6.371094 128.371094 55.027344 8.15625-3.082031 16.800781-4.683594 25.519531-4.71875 39.765625 0 72 32.234375 72 72v.398437c2.640625-.238281 5.28125-.398437 8-.398437zm0 0" fill="#bddbff"/><g fill="#3d9ae2"><path d="m392.042969 128.015625h-.398438c-4.15625-40.855469-38.535156-71.949219-79.601562-72-7.246094.003906-14.460938 1.007813-21.4375 2.976563-24.285157-45.207032-76.191407-68.113282-125.953125-55.582032-49.761719 12.53125-84.628906 57.292969-84.609375 108.605469.007812 5.441406.425781 10.875 1.25 16.253906-47.167969 3.605469-83.042969 43.855469-81.2265628 91.125 1.8164058 47.269531 40.6757818 84.644531 87.9765628 84.621094h24v-16h-24c-39.761719 0-72-32.234375-72-72s32.238281-72 72-72c.417969 0 .800781 0 1.242187.0625l1.375.082031c2.515625.152344 4.941406-.9375 6.496094-2.921875 1.585938-1.929687 2.179688-4.496093 1.601562-6.925781-11.46875-48.003906 15.367188-96.875 62.027344-112.960938 46.65625-16.085937 97.90625 5.863282 118.460938 50.734376 1.753906 3.824218 6.167968 5.636718 10.101562 4.144531 19.59375-7.5 41.617188-4.898438 58.921875 6.957031 17.308594 11.851562 27.691407 31.449219 27.773438 52.429688v.796874c.003906 2.261719.957031 4.414063 2.632812 5.929688 1.683594 1.503906 3.917969 2.242188 6.167969 2.03125 26.449219-2.65625 52.210938 9.480469 67.007812 31.5625 14.792969 22.082031 16.21875 50.523438 3.707032 73.972656-12.515625 23.453125-36.933594 38.101563-63.515625 38.105469h-24v16h24c48.601562 0 88-39.398437 88-88s-39.398438-88-88-88zm0 0"/><path d="m336.042969 200.015625h-192c-13.253907 0-24 10.746094-24 24v176c0 13.253906 10.746093 24 24 24h192c13.257812 0 24-10.746094 24-24v-176c0-13.253906-10.742188-24-24-24zm-192 16h192c4.421875 0 8 3.582031 8 8v24h-208v-24c0-4.417969 3.582031-8 8-8zm192 192h-192c-4.417969 0-8-3.582031-8-8v-136h208v136c0 4.417969-3.578125 8-8 8zm0 0"/><path d="m152.042969 224.015625h16v16h-16zm0 0"/><path d="m176.042969 224.015625h16v16h-16zm0 0"/><path d="m200.042969 224.015625h16v16h-16zm0 0"/><path d="m226.675781 312.160156c-13.175781-1.453125-25.035156 8.046875-26.488281 21.222656-1.453125 13.175782 8.050781 25.035157 21.226562 26.488282.871094.09375 1.75.144531 2.628907.144531 12.773437.035156 23.335937-9.9375 24.03125-22.691406.695312-12.75-8.714844-23.816407-21.414063-25.171875zm5.320313 24.734375c-.472656 4.277344-4.246094 7.414063-8.539063 7.097657-4.292969-.3125-7.5625-3.96875-7.40625-8.269532.15625-4.300781 3.691407-7.707031 7.992188-7.707031.296875 0 .589843.015625.882812.046875 4.378907.484375 7.546875 4.417969 7.078125 8.800781zm0 0"/><path d="m168.042969 312.015625h16v48h-16zm0 0"/><path d="m264.042969 312.015625h16v48h-16zm0 0"/><path d="m296.042969 312.015625h16v48h-16zm0 0"/></g></svg>