<svg height="480pt" viewBox="0 0 480 480" width="480pt" xmlns="http://www.w3.org/2000/svg"><path d="m392 144h48v248h-48zm0 0" fill="#bddbff"/><path d="m440 128v16h-48v-48h48zm0 0" fill="#bddbff"/><path d="m312 8v80l-24-24-24 24v-80zm0 0" fill="#bddbff"/><g fill="#3d9ae2"><path d="m328 0h-288c-22.082031.0273438-39.9726562 17.917969-40 40v400c.0273438 22.082031 17.917969 39.972656 40 40h288c22.082031-.027344 39.972656-17.917969 40-40v-400c-.027344-22.082031-17.917969-39.9726562-40-40zm-24 16v52.6875l-10.34375-10.34375c-3.125-3.121094-8.1875-3.121094-11.3125 0l-10.34375 10.34375v-52.6875zm48 424c0 13.253906-10.746094 24-24 24h-288c-13.253906 0-24-10.746094-24-24v-400c0-13.253906 10.746094-24 24-24h216v72c0 3.234375 1.949219 6.152344 4.9375 7.390625s6.429688.550781 8.71875-1.734375l18.34375-18.34375 18.34375 18.34375c2.289062 2.285156 5.730469 2.972656 8.71875 1.734375s4.9375-4.15625 4.9375-7.390625v-72h8c13.253906 0 24 10.746094 24 24zm0 0"/><path d="m74.34375 117.65625 11.3125-11.3125-18.34375-18.34375 18.34375-18.34375-11.3125-11.3125-24 24c-3.121094 3.125-3.121094 8.1875 0 11.3125zm0 0"/><path d="m181.65625 117.65625 24-24c3.121094-3.125 3.121094-8.1875 0-11.3125l-24-24-11.3125 11.3125 18.34375 18.34375-18.34375 18.34375zm0 0"/><path d="m104.570312 125.027344 32.007813-79.992188 14.863281 5.945313-32.007812 79.996093zm0 0"/><path d="m48 160h32v16h-32zm0 0"/><path d="m96 160h80v16h-80zm0 0"/><path d="m192 160h16v16h-16zm0 0"/><path d="m80 208h32v16h-32zm0 0"/><path d="m128 208h48v16h-48zm0 0"/><path d="m192 208h64v16h-64zm0 0"/><path d="m96 256h48v16h-48zm0 0"/><path d="m160 256h16v16h-16zm0 0"/><path d="m192 256h40v16h-40zm0 0"/><path d="m248 256h48v16h-48zm0 0"/><path d="m48 304h32v16h-32zm0 0"/><path d="m96 304h80v16h-80zm0 0"/><path d="m192 304h64v16h-64zm0 0"/><path d="m80 352h32v16h-32zm0 0"/><path d="m128 352h80v16h-80zm0 0"/><path d="m224 352h16v16h-16zm0 0"/><path d="m64 400h32v16h-32zm0 0"/><path d="m112 400h64v16h-64zm0 0"/><path d="m192 400h56v16h-56zm0 0"/><path d="m264 400h32v16h-32zm0 0"/><path d="m477.65625 154.34375-29.65625-29.65625v-28.6875c0-4.417969-3.582031-8-8-8v-40c0-4.417969-3.582031-8-8-8h-32c-4.417969 0-8 3.582031-8 8v40c-4.417969 0-8 3.582031-8 8v304c-.011719 1.238281.261719 2.460938.800781 3.574219l16 32c1.359375 2.726562 4.152344 4.441406 7.199219 4.425781v32h16v-32c3.046875.015625 5.839844-1.699219 7.199219-4.425781l16-32c.539062-1.113281.8125-2.335938.800781-3.574219v-252.6875l16 16v60.6875h16v-64c0-2.121094-.84375-4.15625-2.34375-5.65625zm-77.65625 229.65625v-232h32v232zm0-248v-32h32v32zm8-80h16v32h-16zm11.054688 368h-6.109376l-12-24h30.109376zm0 0"/></g></svg>