<svg height="480pt" viewBox="0 0 480 480" width="480pt" xmlns="http://www.w3.org/2000/svg"><path d="m24 8h336c8.824219.027344 15.972656 7.175781 16 16v32h-368v-32c.027344-8.824219 7.175781-15.972656 16-16zm0 0" fill="#bddbff"/><path d="m472 168v272c0 17.671875-14.328125 32-32 32h-256c-17.671875 0-32-14.328125-32-32v-304c0-17.671875 14.328125-32 32-32h224v48c.027344 8.824219 7.175781 15.972656 16 16zm0 0" fill="#bddbff"/><g fill="#3d9ae2"><path d="m32 24h16v16h-16zm0 0"/><path d="m64 24h16v16h-16zm0 0"/><path d="m96 24h16v16h-16zm0 0"/><path d="m250.34375 221.65625 11.3125-11.3125-18.34375-18.34375 18.34375-18.34375-11.3125-11.3125-24 24c-3.121094 3.125-3.121094 8.1875 0 11.3125zm0 0"/><path d="m357.65625 221.65625 24-24c3.121094-3.125 3.121094-8.1875 0-11.3125l-24-24-11.3125 11.3125 18.34375 18.34375-18.34375 18.34375zm0 0"/><path d="m280.566406 229.023438 32.007813-79.992188 14.863281 5.945312-32.007812 79.996094zm0 0"/><path d="m208 256h16v16h-16zm0 0"/><path d="m240 256h96v16h-96zm0 0"/><path d="m224 288h32v16h-32zm0 0"/><path d="m272 288h80v16h-80zm0 0"/><path d="m192 320h144v16h-144zm0 0"/><path d="m477.65625 162.34375-64-64c-1.5-1.5-3.535156-2.34375-5.65625-2.34375h-24v-72c0-13.253906-10.746094-24-24-24h-336c-13.253906 0-24 10.746094-24 24v304c0 13.253906 10.746094 24 24 24h120v88c.027344 22.082031 17.917969 39.972656 40 40h256c22.082031-.027344 39.972656-17.917969 40-40v-272c0-2.121094-.84375-4.15625-2.34375-5.65625zm-61.65625-39.03125 36.6875 36.6875h-28.6875c-4.417969 0-8-3.582031-8-8zm-392-107.3125h336c4.417969 0 8 3.582031 8 8v24h-352v-24c0-4.417969 3.582031-8 8-8zm120 120v200h-120c-4.417969 0-8-3.582031-8-8v-264h352v32h-184c-22.082031.027344-39.972656 17.917969-40 40zm296 328h-256c-13.253906 0-24-10.746094-24-24v-304c0-13.253906 10.746094-24 24-24h216v40c0 13.253906 10.746094 24 24 24h40v264c0 13.253906-10.746094 24-24 24zm0 0"/><path d="m248 352h32v16h-32zm0 0"/><path d="m296 352h96v16h-96zm0 0"/><path d="m264 384h96v16h-96zm0 0"/><path d="m208 416h48v16h-48zm0 0"/><path d="m272 416h32v16h-32zm0 0"/><path d="m320 416h88v16h-88zm0 0"/></g></svg>