<svg height="480pt" viewBox="0 0 480 480" width="480pt" xmlns="http://www.w3.org/2000/svg"><path d="m392 376h32v48h-48v-48zm0 0" fill="#bddbff"/><path d="m376 376v48h-248v-48zm0 0" fill="#bddbff"/><path d="m296 192v32h-25.519531c-2.246094 12.136719-7.015625 23.664062-14 33.839844l18 18.082031-22.558594 22.558594-18.082031-18c-10.175782 6.984375-21.703125 11.753906-33.839844 14v25.519531h-32v-25.519531c-12.136719-2.246094-23.664062-7.015625-33.839844-14l-18.082031 18-22.558594-22.558594 18-18.082031c-6.984375-10.175782-11.753906-21.703125-14-33.839844h-25.519531v-32h25.519531c2.246094-12.136719 7.015625-23.664062 14-33.839844l-18-18.082031 22.558594-22.558594 18.082031 18c10.175782-6.984375 21.703125-11.753906 33.839844-14v-25.519531h32v25.519531c12.136719 2.246094 23.664062 7.015625 33.839844 14l18.082031-18 22.558594 22.558594-18 18.082031c6.984375 10.175782 11.753906 21.703125 14 33.839844zm-64 16c0-26.507812-21.492188-48-48-48s-48 21.492188-48 48 21.492188 48 48 48 48-21.492188 48-48zm0 0" fill="#bddbff"/><path d="m312 8v80l-24-24-24 24v-80zm0 0" fill="#bddbff"/><g fill="#3d9ae2"><path d="m328 464h-288c-13.253906 0-24-10.746094-24-24v-400c0-13.253906 10.746094-24 24-24h216v72c0 3.234375 1.949219 6.152344 4.9375 7.390625s6.429688.550781 8.71875-1.734375l18.34375-18.34375 18.34375 18.34375c1.5 1.5 3.535156 2.34375 5.65625 2.34375 1.050781.003906 2.09375-.203125 3.0625-.609375 2.988281-1.238281 4.9375-4.15625 4.9375-7.390625v-72h8c13.253906 0 24 10.746094 24 24v288h16v-288c-.027344-22.082031-17.917969-39.9726562-40-40h-288c-22.082031.0273438-39.9726562 17.917969-40 40v400c.0273438 22.082031 17.917969 39.972656 40 40h288c22.082031-.027344 39.972656-17.917969 40-40h-16c0 13.253906-10.746094 24-24 24zm-24-448v52.6875l-10.34375-10.34375c-3.125-3.121094-8.1875-3.121094-11.3125 0l-10.34375 10.34375v-52.6875zm0 0"/><path d="m472 376h-40c0-4.417969-3.582031-8-8-8h-28.6875l-29.65625-29.65625c-1.5-1.5-3.535156-2.34375-5.65625-2.34375h-64v16h60.6875l16 16h-252.6875c-1.238281-.011719-2.460938.261719-3.574219.800781l-32 16c-2.726562 1.359375-4.441406 4.152344-4.425781 7.199219h-32v16h32c-.015625 3.046875 1.699219 5.839844 4.425781 7.199219l32 16c1.113281.539062 2.335938.8125 3.574219.800781h304c4.417969 0 8-3.582031 8-8h40c4.417969 0 8-3.582031 8-8v-32c0-4.417969-3.582031-8-8-8zm-336 8h232v32h-232zm-40 19.054688v-6.109376l24-12v30.109376zm288 12.945312v-32h32v32zm80-8h-32v-16h32zm0 0"/><path d="m296 232c4.417969 0 8-3.582031 8-8v-32c0-4.417969-3.582031-8-8-8h-19.097656c-2.214844-8.691406-5.652344-17.023438-10.214844-24.742188l13.480469-13.480468c3.125-3.125 3.125-8.1875 0-11.3125l-22.632813-22.632813c-3.125-3.125-8.1875-3.125-11.3125 0l-13.480468 13.480469c-7.71875-4.5625-16.050782-8-24.742188-10.214844v-19.097656c0-4.417969-3.582031-8-8-8h-32c-4.417969 0-8 3.582031-8 8v19.097656c-8.691406 2.214844-17.023438 5.652344-24.742188 10.214844l-13.480468-13.480469c-3.125-3.125-8.1875-3.125-11.3125 0l-22.632813 22.632813c-3.125 3.125-3.125 8.1875 0 11.3125l13.480469 13.480468c-4.5625 7.71875-8 16.050782-10.214844 24.742188h-19.097656c-4.417969 0-8 3.582031-8 8v32c0 4.417969 3.582031 8 8 8h19.097656c2.214844 8.691406 5.652344 17.023438 10.214844 24.742188l-13.480469 13.480468c-3.125 3.125-3.125 8.1875 0 11.3125l22.632813 22.632813c3.125 3.125 8.1875 3.125 11.3125 0l13.480468-13.488281c7.71875 4.566406 16.050782 8.007812 24.742188 10.222656v19.097656c0 4.417969 3.582031 8 8 8h32c4.417969 0 8-3.582031 8-8v-19.097656c8.691406-2.214844 17.023438-5.65625 24.742188-10.222656l13.480468 13.488281c3.125 3.125 8.1875 3.125 11.3125 0l22.632813-22.632813c3.125-3.125 3.125-8.1875 0-11.3125l-13.480469-13.480468c4.5625-7.71875 8-16.050782 10.214844-24.742188zm-33.390625-9.449219c-2.007813 11.039063-6.339844 21.527344-12.714844 30.761719-2.183593 3.179688-1.792969 7.464844.9375 10.191406l12.367188 12.375-11.320313 11.320313-12.367187-12.359375c-2.726563-2.730469-7.011719-3.121094-10.191407-.9375-9.238281 6.371094-19.726562 10.707031-30.769531 12.714844-3.792969.695312-6.550781 4.003906-6.550781 7.863281v17.519531h-16v-17.519531c.003906-3.863281-2.753906-7.171875-6.550781-7.871094-11.042969-2.007813-21.53125-6.34375-30.769531-12.714844-3.179688-2.183593-7.464844-1.792969-10.191407.9375l-12.367187 12.367188-11.320313-11.320313 12.359375-12.375c2.730469-2.726562 3.121094-7.011718.9375-10.191406-6.375-9.234375-10.707031-19.722656-12.714844-30.761719-.695312-3.792969-4.003906-6.550781-7.863281-6.550781h-17.519531v-16h17.519531c3.863281.003906 7.171875-2.753906 7.871094-6.550781 2.007813-11.039063 6.339844-21.527344 12.714844-30.761719 2.183593-3.179688 1.792969-7.464844-.9375-10.191406l-12.367188-12.375 11.320313-11.320313 12.375 12.359375c2.726562 2.730469 7.011718 3.121094 10.191406.9375 9.234375-6.375 19.722656-10.707031 30.761719-12.714844 3.792969-.695312 6.550781-4.003906 6.550781-7.863281v-17.519531h16v17.519531c-.003906 3.863281 2.753906 7.171875 6.550781 7.871094 11.039063 2.007813 21.527344 6.339844 30.761719 12.714844 3.179688 2.183593 7.464844 1.792969 10.191406-.9375l12.375-12.367188 11.320313 11.320313-12.359375 12.375c-2.730469 2.726562-3.121094 7.011718-.9375 10.191406 6.375 9.234375 10.707031 19.722656 12.714844 30.761719.695312 3.792969 4.003906 6.550781 7.863281 6.550781h17.519531v16h-17.519531c-3.863281-.003906-7.171875 2.753906-7.871094 6.550781zm0 0"/><path d="m184 152c-30.929688 0-56 25.070312-56 56s25.070312 56 56 56 56-25.070312 56-56c-.039062-30.910156-25.089844-55.960938-56-56zm0 96c-22.089844 0-40-17.910156-40-40s17.910156-40 40-40 40 17.910156 40 40c-.027344 22.082031-17.917969 39.972656-40 40zm0 0"/><path d="m48 48h16v16h-16zm0 0"/><path d="m80 48h16v16h-16zm0 0"/><path d="m112 48h16v16h-16zm0 0"/></g></svg>