<svg height="480pt" viewBox="-4 0 480 480" width="480pt" xmlns="http://www.w3.org/2000/svg"><path d="m360 472h-336c-8.824219-.027344-15.972656-7.175781-16-16v-88c.027344-8.824219 7.175781-15.972656 16-16h336c8.824219.027344 15.972656 7.175781 16 16v88c-.027344 8.824219-7.175781 15.972656-16 16zm0 0" fill="#bddbff"/><path d="m24 8h272c8.824219.027344 15.972656 7.175781 16 16v32h-304v-32c.027344-8.824219 7.175781-15.972656 16-16zm0 0" fill="#bddbff"/><g fill="#3d9ae2"><path d="m32 24h16v16h-16zm0 0"/><path d="m64 24h16v16h-16zm0 0"/><path d="m96 24h16v16h-16zm0 0"/><path d="m61.65625 114.34375-10.34375-10.34375 10.34375-10.34375-11.3125-11.3125-16 16c-3.121094 3.125-3.121094 8.1875 0 11.3125l16 16zm0 0"/><path d="m93.65625 125.65625 16-16c3.121094-3.125 3.121094-8.1875 0-11.3125l-16-16-11.3125 11.3125 10.34375 10.34375-10.34375 10.34375zm0 0"/><path d="m64 144h16v16h-16zm0 0"/><path d="m96 144h80v16h-80zm0 0"/><path d="m80 176h32v16h-32zm0 0"/><path d="m128 176h80v16h-80zm0 0"/><path d="m48 208h144v16h-144zm0 0"/><path d="m96 240h32v16h-32zm0 0"/><path d="m144 240h80v16h-80zm0 0"/><path d="m80 440h224v16h-224zm0 0"/><path d="m336 440h-16v16h24c4.417969 0 8-3.582031 8-8v-32h-16zm0 0"/><path d="m32 440h32v16h-32zm0 0"/><path d="m40 408h16v16h-16zm0 0"/><path d="m72 408h16v16h-16zm0 0"/><path d="m104 408h16v16h-16zm0 0"/><path d="m136 408h16v16h-16zm0 0"/><path d="m168 408h16v16h-16zm0 0"/><path d="m200 408h16v16h-16zm0 0"/><path d="m232 408h16v16h-16zm0 0"/><path d="m264 408h16v16h-16zm0 0"/><path d="m296 408h16v16h-16zm0 0"/><path d="m40 376h16v16h-16zm0 0"/><path d="m72 376h16v16h-16zm0 0"/><path d="m104 376h16v16h-16zm0 0"/><path d="m136 376h16v16h-16zm0 0"/><path d="m168 376h16v16h-16zm0 0"/><path d="m200 376h16v16h-16zm0 0"/><path d="m232 376h16v16h-16zm0 0"/><path d="m264 376h16v16h-16zm0 0"/><path d="m296 376h16v16h-16zm0 0"/><path d="m432 0c-22.082031.0273438-39.972656 17.917969-40 40v80c0 13.253906-10.746094 24-24 24h-48v-120c0-13.253906-10.746094-24-24-24h-272c-13.253906 0-24 10.746094-24 24v240c0 13.253906 10.746094 24 24 24h272c13.253906 0 24-10.746094 24-24v-104h48c22.082031-.027344 39.972656-17.917969 40-40v-80c0-13.253906 10.746094-24 24-24s24 10.746094 24 24v320c0 13.253906-10.746094 24-24 24h-24v-8c0-4.417969-3.582031-8-8-8h-16c0-13.253906-10.746094-24-24-24h-336c-13.253906 0-24 10.746094-24 24v88c0 13.253906 10.746094 24 24 24h336c13.253906 0 24-10.746094 24-24v-40h16c4.417969 0 8-3.582031 8-8v-8h24c22.082031-.027344 39.972656-17.917969 40-40v-320c-.027344-22.082031-17.917969-39.9726562-40-40zm-408 16h272c4.417969 0 8 3.582031 8 8v24h-288v-24c0-4.417969 3.582031-8 8-8zm272 256h-272c-4.417969 0-8-3.582031-8-8v-200h288v200c0 4.417969-3.582031 8-8 8zm72 184c0 4.417969-3.582031 8-8 8h-336c-4.417969 0-8-3.582031-8-8v-88c0-4.417969 3.582031-8 8-8h336c4.417969 0 8 3.582031 8 8zm24-56h-8v-16h8zm0 0"/></g></svg>