<svg height="480pt" viewBox="0 0 480 480" width="480pt" xmlns="http://www.w3.org/2000/svg"><path d="m424 168v16h-64v-16c0-17.671875 14.328125-32 32-32s32 14.328125 32 32zm0 0" fill="#bddbff"/><path d="m360 208h64v168l-32-24-32 24zm0 0" fill="#bddbff"/><path d="m328 256v48h-34.878906c-2.59375 10.757812-6.859375 21.042969-12.640625 30.480469l24.640625 24.71875-33.921875 33.921875-24.71875-24.640625c-9.4375 5.78125-19.722657 10.046875-30.480469 12.640625v34.878906h-48v-34.878906c-10.757812-2.59375-21.042969-6.859375-30.480469-12.640625l-24.71875 24.640625-33.921875-33.921875 24.640625-24.71875c-5.78125-9.4375-10.046875-19.722657-12.640625-30.480469h-34.878906v-48h34.878906c2.59375-10.757812 6.859375-21.042969 12.640625-30.480469l-24.640625-24.71875 33.921875-33.921875 24.71875 24.640625c9.4375-5.78125 19.722657-10.046875 30.480469-12.640625v-34.878906h48v34.878906c10.757812 2.59375 21.042969 6.859375 30.480469 12.640625l24.71875-24.640625 33.921875 33.921875-24.640625 24.71875c5.78125 9.4375 10.046875 19.722657 12.640625 30.480469zm-80 24c0-30.929688-25.070312-56-56-56s-56 25.070312-56 56 25.070312 56 56 56c14.855469.011719 29.105469-5.886719 39.609375-16.390625s16.402344-24.753906 16.390625-39.609375zm0 0" fill="#bddbff"/><path d="m472 40v32h-464v-32c0-17.671875 14.328125-32 32-32h400c17.671875 0 32 14.328125 32 32zm0 0" fill="#bddbff"/><g fill="#3d9ae2"><path d="m440 0h-400c-22.082031.0273438-39.9726562 17.917969-40 40v400c.0273438 22.082031 17.917969 39.972656 40 40h400c22.082031-.027344 39.972656-17.917969 40-40v-400c-.027344-22.082031-17.917969-39.9726562-40-40zm-400 16h400c13.253906 0 24 10.746094 24 24v24h-448v-24c0-13.253906 10.746094-24 24-24zm400 448h-400c-13.253906 0-24-10.746094-24-24v-360h448v360c0 13.253906-10.746094 24-24 24zm0 0"/><path d="m48 32h16v16h-16zm0 0"/><path d="m80 32h16v16h-16zm0 0"/><path d="m112 32h16v16h-16zm0 0"/><path d="m168 32h240v16h-240zm0 0"/><path d="m392 128c-22.082031.027344-39.972656 17.917969-40 40v208c.03125 2.109375.894531 4.121094 2.398438 5.601562l24 24c1.480468 1.503907 3.492187 2.367188 5.601562 2.398438v16c0 4.417969 3.582031 8 8 8s8-3.582031 8-8v-16c2.121094 0 4.15625-.84375 5.65625-2.34375l24-24c1.5-1.5 2.34375-3.535156 2.34375-5.65625v-208c-.027344-22.082031-17.917969-39.972656-40-40zm-8 104v116l-16 12v-144h48v144l-16-12v-116zm32-32h-48v-8h48zm-24-56c13.253906 0 24 10.746094 24 24v8h-48v-8c0-13.253906 10.746094-24 24-24zm4.6875 248h-9.375l-15.136719-15.136719 19.824219-14.863281 19.824219 14.863281zm0 0"/><path d="m328 248h-28.753906c-2.195313-7.347656-5.144532-14.449219-8.796875-21.191406l20.34375-20.34375c3.121093-3.125 3.121093-8.1875 0-11.3125l-33.953125-33.945313c-3.125-3.121093-8.1875-3.121093-11.3125 0l-20.34375 20.34375c-6.738282-3.65625-13.835938-6.605469-21.183594-8.796875v-28.753906c0-4.417969-3.582031-8-8-8h-48c-4.417969 0-8 3.582031-8 8v28.753906c-7.347656 2.191406-14.453125 5.140625-21.191406 8.796875l-20.34375-20.34375c-3.125-3.121093-8.1875-3.121093-11.3125 0l-33.953125 33.945313c-3.121094 3.125-3.121094 8.1875 0 11.3125l20.34375 20.34375c-3.652344 6.742187-6.597657 13.84375-8.789063 21.191406h-28.753906c-4.417969 0-8 3.582031-8 8v48c0 4.417969 3.582031 8 8 8h28.753906c2.195313 7.347656 5.144532 14.449219 8.796875 21.191406l-20.351562 20.34375c-3.121094 3.125-3.121094 8.1875 0 11.3125l33.953125 33.945313c3.125 3.121093 8.1875 3.121093 11.3125 0l20.34375-20.34375c6.738281 3.65625 13.84375 6.605469 21.191406 8.796875v28.753906c0 4.417969 3.582031 8 8 8h48c4.417969 0 8-3.582031 8-8v-28.753906c7.347656-2.191406 14.453125-5.140625 21.191406-8.796875l20.34375 20.34375c3.125 3.121093 8.1875 3.121093 11.3125 0l33.953125-33.945313c3.121094-3.125 3.121094-8.1875 0-11.3125l-20.34375-20.34375c3.652344-6.742187 6.597657-13.84375 8.789063-21.191406h28.753906c4.417969 0 8-3.582031 8-8v-48c0-4.417969-3.582031-8-8-8zm-8 48h-26.886719c-3.710937 0-6.933593 2.550781-7.785156 6.160156-2.367187 9.945313-6.308594 19.445313-11.679687 28.144532-1.949219 3.15625-1.472657 7.242187 1.152343 9.863281l19.03125 19.03125-22.632812 22.625-19.023438-19.03125c-2.621093-2.625-6.707031-3.101563-9.863281-1.152344-8.695312 5.378906-18.195312 9.324219-28.144531 11.679687-3.609375.851563-6.160157 4.074219-6.160157 7.785157v26.894531h-32.007812v-26.894531c0-3.710938-2.550781-6.933594-6.160156-7.785157-9.949219-2.355468-19.449219-6.300781-28.144532-11.679687-3.15625-1.949219-7.242187-1.472656-9.863281 1.152344l-19.03125 19.03125-22.632812-22.625 19.03125-19.023438c2.625-2.621093 3.101562-6.707031 1.152343-9.863281-5.371093-8.699219-9.3125-18.199219-11.679687-28.144531-.851563-3.609375-4.074219-6.160157-7.785156-6.160157h-26.886719v-32.007812h26.886719c3.710937 0 6.933593-2.550781 7.785156-6.160156 2.367187-9.945313 6.308594-19.445313 11.679687-28.144532 1.949219-3.15625 1.472657-7.242187-1.152343-9.863281l-19.03125-19.03125 22.640625-22.632812 19.023437 19.03125c2.621094 2.625 6.707031 3.101562 9.863281 1.152343 8.695313-5.378906 18.195313-9.324218 28.144532-11.679687 3.609375-.851563 6.160156-4.074219 6.160156-7.785156v-26.886719h32v26.894531c0 3.710938 2.550781 6.933594 6.160156 7.785157 9.949219 2.355468 19.449219 6.300781 28.144532 11.679687 3.15625 1.949219 7.242187 1.472656 9.863281-1.152344l19.03125-19.03125 22.640625 22.632813-19.039063 19.023437c-2.625 2.621094-3.101562 6.707031-1.152343 9.863281 5.371093 8.699219 9.3125 18.199219 11.679687 28.144532.851563 3.609375 4.074219 6.160156 7.785156 6.160156h26.886719zm0 0"/><path d="m192 216c-35.347656 0-64 28.652344-64 64s28.652344 64 64 64 64-28.652344 64-64c-.039062-35.328125-28.671875-63.960938-64-64zm0 112c-26.507812 0-48-21.492188-48-48s21.492188-48 48-48 48 21.492188 48 48c-.027344 26.5-21.5 47.972656-48 48zm0 0"/></g></svg>