<svg height="480pt" viewBox="0 0 480 480" width="480pt" xmlns="http://www.w3.org/2000/svg"><path d="m417.679688 359.761719c6.421874 5.980469 9.0625 14.992187 6.894531 23.496093-2.171875 8.503907-8.8125 15.144532-17.316407 17.316407-8.503906 2.167969-17.515624-.472657-23.496093-6.894531l-56.5625-56.558594-24.71875-24.640625-35.679688-35.761719c-18.796875 6.695312-39.734375 2.882812-54.960937-10.007812-15.230469-12.890626-22.453125-32.90625-18.960938-52.550782l26.800782 26.800782 36.320312-8.960938 8.960938-36.320312-26.800782-26.800782c19.644532-3.492187 39.660156 3.730469 52.550782 18.960938 12.890624 15.226562 16.703124 36.164062 10.007812 54.960937l60.402344 60.398438zm0 0" fill="#bddbff"/><path d="m472 24v32h-416v-32c.027344-8.824219 7.175781-15.972656 16-16h384c8.824219.027344 15.972656 7.175781 16 16zm0 0" fill="#bddbff"/><path d="m56 56v48.078125s-48-.078125-48 0v-32.078125c.027344-8.824219 7.175781-15.972656 16-16zm0 0" fill="#bddbff"/><g fill="#3d9ae2"><path d="m366.792969 297.542969-20.34375-20.34375c3.65625-6.742188 6.605469-13.847657 8.796875-21.199219h28.753906c4.417969 0 8-3.582031 8-8v-48c0-4.417969-3.582031-8-8-8h-28.753906c-2.195313-7.347656-5.144532-14.449219-8.796875-21.191406l20.34375-20.34375c3.121093-3.125 3.121093-8.1875 0-11.3125l-33.953125-33.945313c-3.125-3.121093-8.1875-3.121093-11.3125 0l-20.34375 20.34375c-6.738282-3.65625-13.835938-6.605469-21.183594-8.796875v-28.753906c0-4.417969-3.582031-8-8-8h-48c-4.417969 0-8 3.582031-8 8v28.753906c-7.347656 2.191406-14.453125 5.140625-21.191406 8.796875l-20.34375-20.34375c-3.125-3.121093-8.1875-3.121093-11.3125 0l-33.953125 33.945313c-3.121094 3.125-3.121094 8.1875 0 11.3125l20.34375 20.34375c-3.652344 6.742187-6.597657 13.84375-8.789063 21.191406h-28.753906c-4.417969 0-8 3.582031-8 8v48c0 4.417969 3.582031 8 8 8h28.753906c2.195313 7.347656 5.144532 14.449219 8.796875 21.191406l-20.351562 20.34375c-3.121094 3.125-3.121094 8.1875 0 11.3125l33.953125 33.945313c3.125 3.121093 8.1875 3.121093 11.3125 0l20.34375-20.34375c6.738281 3.65625 13.84375 6.605469 21.191406 8.796875v28.753906c0 4.417969 3.582031 8 8 8h48c4.417969 0 8-3.582031 8-8v-28.753906c7.347656-2.191406 14.453125-5.140625 21.191406-8.796875l76.921875 76.910156c8.03125 8.320313 19.929688 11.65625 31.117188 8.726563 11.191406-2.929688 19.925781-11.664063 22.855469-22.855469 2.929687-11.1875-.40625-23.085938-8.726563-31.117188zm-96.632813 19.777343c-3.609375.851563-6.160156 4.074219-6.160156 7.785157v26.894531h-32v-26.894531c0-3.710938-2.550781-6.933594-6.160156-7.785157-9.949219-2.355468-19.449219-6.300781-28.144532-11.679687-3.15625-1.949219-7.242187-1.472656-9.863281 1.152344l-19.03125 19.03125-22.632812-22.625 19.03125-19.023438c2.625-2.621093 3.101562-6.707031 1.152343-9.863281-5.371093-8.699219-9.3125-18.199219-11.679687-28.144531-.851563-3.609375-4.074219-6.160157-7.785156-6.160157h-26.886719v-32.007812h26.886719c3.710937 0 6.933593-2.550781 7.785156-6.160156 2.367187-9.945313 6.308594-19.445313 11.679687-28.144532 1.949219-3.15625 1.472657-7.242187-1.152343-9.863281l-19.03125-19.03125 22.640625-22.632812 19.023437 19.03125c2.621094 2.625 6.707031 3.101562 9.863281 1.152343 8.695313-5.378906 18.195313-9.324218 28.144532-11.679687 3.609375-.851563 6.160156-4.074219 6.160156-7.785156v-26.886719h32v26.894531c0 3.710938 2.550781 6.933594 6.160156 7.785157 9.949219 2.355468 19.449219 6.300781 28.144532 11.679687 3.15625 1.949219 7.242187 1.472656 9.863281-1.152344l19.03125-19.03125 22.640625 22.632813-19.039063 19.023437c-2.625 2.621094-3.101562 6.707031-1.152343 9.863281 5.371093 8.699219 9.3125 18.199219 11.679687 28.144532.851563 3.609375 4.074219 6.160156 7.785156 6.160156h26.886719v32h-26.886719c-3.710937 0-6.933593 2.550781-7.785156 6.160156-1.589844 6.589844-3.875 12.992188-6.824219 19.097656l-24.734375-24.738281c5.679688-21.125.15625-43.6875-14.636719-59.804687-14.792968-16.113282-36.800781-23.542969-58.332031-19.691406-2.9375.519531-5.34375 2.628906-6.238281 5.476562-.898438 2.84375-.136719 5.949219 1.972656 8.058594l23.625 23.617187-6.726562 27.199219-27.203125 6.730469-23.621094-23.625c-2.109375-2.105469-5.214844-2.863281-8.058594-1.96875-2.839843.898437-4.949219 3.296875-5.472656 6.230469-3.863281 21.539062 3.558594 43.558593 19.671875 58.363281 16.117188 14.800781 38.683594 20.332031 59.816406 14.65625l24.738282 24.726562c-6.117188 2.957031-12.535157 5.25-19.144532 6.832031zm141.886719 70.726563c-6.332031 6.039063-16.289063 6.039063-22.621094 0l-56.578125-56.566406-24.679687-24.6875-35.742188-35.746094c-2.183593-2.179687-5.429687-2.914063-8.335937-1.878906-13.089844 4.699219-27.570313 3.472656-39.683594-3.355469s-20.65625-18.582031-23.414062-32.210938l13.070312 13.0625c1.984375 1.980469 4.855469 2.785157 7.578125 2.113282l36.28125-8.96875c2.882813-.714844 5.132813-2.964844 5.847656-5.847656l8.964844-36.359376c.671875-2.722656-.128906-5.597656-2.109375-7.578124l-13.023438-13.03125c13.632813 2.746093 25.402344 11.289062 32.238282 23.402343 6.835937 12.113281 8.066406 26.601563 3.367187 39.695313-1.03125 2.90625-.300781 6.152344 1.882813 8.335937l116.957031 117c6.246094 6.246094 6.246094 16.375 0 22.621094zm0 0"/><path d="m80 24h16v16h-16zm0 0"/><path d="m112 24h16v16h-16zm0 0"/><path d="m144 24h16v16h-16zm0 0"/><path d="m456 0h-384c-13.253906 0-24 10.746094-24 24v24h-24c-13.253906 0-24 10.746094-24 24v384c0 13.253906 10.746094 24 24 24h384c13.253906 0 24-10.746094 24-24v-24h24c13.253906 0 24-10.746094 24-24v-384c0-13.253906-10.746094-24-24-24zm-384 16h384c4.417969 0 8 3.582031 8 8v24h-400v-24c0-4.417969 3.582031-8 8-8zm-48 48h24v32.046875c-15.550781 0-25.503906 0-32 .113281v-24.160156c0-4.417969 3.582031-8 8-8zm392 392c0 4.417969-3.582031 8-8 8h-384c-4.417969 0-8-3.582031-8-8v-344h32v296c0 13.253906 10.746094 24 24 24h344zm40-40h-384c-4.417969 0-8-3.582031-8-8v-344h400v344c0 4.417969-3.582031 8-8 8zm0 0"/><path d="m240 112h16v16h-16zm0 0"/><path d="m163.152344 150.460938 11.3125-11.3125 11.316406 11.3125-11.316406 11.3125zm0 0"/><path d="m136 216h16v16h-16zm0 0"/><path d="m163.148438 297.535156 11.3125-11.3125 11.316406 11.3125-11.316406 11.316406zm0 0"/><path d="m240 320h16v16h-16zm0 0"/><path d="m382.222656 369.542969 11.3125-11.316407 11.316406 11.316407-11.316406 11.3125zm0 0"/><path d="m344 216h16v16h-16zm0 0"/><path d="m310.226562 150.464844 11.316407-11.3125 11.3125 11.3125-11.3125 11.316406zm0 0"/></g></svg>