<svg height="480pt" viewBox="0 0 480 480" width="480pt" xmlns="http://www.w3.org/2000/svg"><path d="m472 24v48h-48c-.027344-8.824219-7.175781-15.972656-16-16h-352v-32c.027344-8.824219 7.175781-15.972656 16-16h384c8.824219.027344 15.972656 7.175781 16 16zm0 0" fill="#bddbff"/><path d="m312 248c-.003906 34.269531-18.304688 65.929688-48 83.039062v20.960938h-96v-20.960938c-40.355469-23.300781-58.152344-72.21875-42.199219-116.003906 15.953125-43.78125 61.046875-69.789062 106.933594-61.664062s79.3125 48.027344 79.265625 94.628906zm-96 48 40-56h-80zm0 0" fill="#bddbff"/><path d="m8 120v-48c.027344-8.824219 7.175781-15.972656 16-16h384c8.824219.027344 15.972656 7.175781 16 16v48zm0 0" fill="#bddbff"/><g fill="#3d9ae2"><path d="m32 80h16v16h-16zm0 0"/><path d="m64 80h16v16h-16zm0 0"/><path d="m96 80h16v16h-16zm0 0"/><path d="m456 0h-384c-13.253906 0-24 10.746094-24 24v24h-24c-13.253906 0-24 10.746094-24 24v384c0 13.253906 10.746094 24 24 24h384c13.253906 0 24-10.746094 24-24v-24h24c13.253906 0 24-10.746094 24-24v-384c0-13.253906-10.746094-24-24-24zm-392 24c0-4.417969 3.582031-8 8-8h384c4.417969 0 8 3.582031 8 8v40h-33.472656c-3.378906-9.554688-12.394532-15.957031-22.527344-16h-344zm-40 40h384c4.417969 0 8 3.582031 8 8v40h-400v-40c0-4.417969 3.582031-8 8-8zm384 400h-384c-4.417969 0-8-3.582031-8-8v-328h400v328c0 4.417969-3.582031 8-8 8zm48-48h-24v-336h32v328c0 4.417969-3.582031 8-8 8zm0 0"/><path d="m144 80h208v16h-208zm0 0"/><path d="m256 232h-80c-2.996094 0-5.742188 1.675781-7.113281 4.339844-1.371094 2.664062-1.140625 5.871094.601562 8.308594l40 56c1.5 2.105468 3.925781 3.351562 6.511719 3.351562s5.011719-1.246094 6.511719-3.351562l40-56c1.742187-2.4375 1.972656-5.644532.601562-8.308594-1.371093-2.664063-4.117187-4.339844-7.113281-4.339844zm-40 50.230469-24.457031-34.230469h48.914062zm0 0"/><path d="m216 144c-46.191406-.019531-86.855469 30.441406-99.816406 74.777344-12.960938 44.332031 4.890625 91.902344 43.816406 116.765625v16.457031c0 4.417969 3.582031 8 8 8h96c4.417969 0 8-3.582031 8-8v-16.457031c38.925781-24.863281 56.777344-72.433594 43.816406-116.765625-12.960937-44.335938-53.625-74.796875-99.816406-74.777344zm44 180.136719c-2.472656 1.425781-3.996094 4.0625-4 6.917969v12.945312h-80v-12.945312c-.003906-2.855469-1.527344-5.492188-4-6.917969-34.492188-19.914063-51.308594-60.515625-41-98.988281 10.308594-38.472657 45.171875-65.222657 85-65.222657s74.691406 26.75 85 65.222657c10.308594 38.472656-6.507812 79.074218-41 98.988281zm0 0"/><path d="m264 368h-96c-4.417969 0-8 3.582031-8 8v32c0 4.417969 3.582031 8 8 8h16v16c0 4.417969 3.582031 8 8 8h48c4.417969 0 8-3.582031 8-8v-16h16c4.417969 0 8-3.582031 8-8v-32c0-4.417969-3.582031-8-8-8zm-32 56h-32v-8h32zm24-24h-80v-16h80zm0 0"/><path d="m336 232h32v16h-32zm0 0"/><path d="m315.921875 173.070312 27.714844-16 8 13.859376-27.714844 15.996093zm0 0"/><path d="m80.359375 170.933594 8-13.855469 27.714844 16-8 13.855469zm0 0"/><path d="m64 232h32v16h-32zm0 0"/><path d="m80.359375 309.074219 27.710937-16 8 13.859375-27.714843 15.996094zm0 0"/><path d="m315.921875 306.933594 8-13.855469 27.714844 16-8 13.855469zm0 0"/></g></svg>