<svg height="480pt" viewBox="0 0 480 480" width="480pt" xmlns="http://www.w3.org/2000/svg"><path d="m472 232h-64c-8.824219-.027344-15.972656-7.175781-16-16v-64zm0 0" fill="#bddbff"/><path d="m136 224h32v24h-32zm0 0" fill="#bddbff"/><path d="m120 200h64v24h-64zm0 0" fill="#bddbff"/><path d="m120 384h256v32h-256zm0 0" fill="#bddbff"/><path d="m208 112c-.011719 18.308594-8.972656 35.457031-24 45.921875v18.078125h-64v-18.078125c-21.816406-15.195313-29.945312-43.632813-19.453125-68.058594 10.492187-24.429687 36.714844-38.113281 62.753906-32.746093 26.039063 5.363281 44.714844 28.296874 44.699219 54.882812zm-56 32 24-32h-48zm0 0" fill="#bddbff"/><g fill="#3d9ae2"><path d="m477.65625 226.34375-80-80c-1.5-1.5-3.535156-2.34375-5.65625-2.34375h-168v16h160v56c0 13.253906 10.746094 24 24 24h56v216c0 4.417969-3.582031 8-8 8h-432c-4.417969 0-8-3.582031-8-8v-288c0-4.417969 3.582031-8 8-8h56v-16h-56c-13.253906 0-24 10.746094-24 24v288c0 13.253906 10.746094 24 24 24h432c13.253906 0 24-10.746094 24-24v-224c0-2.121094-.84375-4.15625-2.34375-5.65625zm-77.65625-10.34375v-44.6875l52.6875 52.6875h-44.6875c-4.417969 0-8-3.582031-8-8zm0 0"/><path d="m112 161.921875v14.078125c0 4.417969 3.582031 8 8 8h64c4.417969 0 8-3.582031 8-8v-14.078125c21.214844-16.988281 29.386719-45.515625 20.386719-71.15625-9-25.644531-33.210938-42.804687-60.386719-42.804687s-51.386719 17.160156-60.386719 42.804687c-9 25.640625-.828125 54.167969 20.386719 71.15625zm40-97.921875c20.953125.023438 39.464844 13.636719 45.742188 33.628906 6.273437 19.988282-1.144532 41.738282-18.328126 53.730469-2.140624 1.5-3.414062 3.945313-3.414062 6.5625v10.078125h-48v-10.078125c0-2.617187-1.273438-5.0625-3.414062-6.5625-17.183594-11.992187-24.601563-33.742187-18.328126-53.730469 6.277344-19.992187 24.789063-33.605468 45.742188-33.628906zm0 0"/><path d="m184 192h-64c-4.417969 0-8 3.582031-8 8v24c0 4.417969 3.582031 8 8 8h8v16c0 4.417969 3.582031 8 8 8h32c4.417969 0 8-3.582031 8-8v-16h8c4.417969 0 8-3.582031 8-8v-24c0-4.417969-3.582031-8-8-8zm-24 48h-16v-8h16zm16-24h-48v-8h48zm0 0"/><path d="m145.601562 148.800781c1.507813 2.011719 3.878907 3.199219 6.398438 3.199219s4.890625-1.1875 6.398438-3.199219l24-32c1.820312-2.425781 2.113281-5.667969.757812-8.378906s-4.125-4.421875-7.15625-4.421875h-48c-3.03125 0-5.800781 1.710938-7.15625 4.421875s-1.0625 5.953125.757812 8.378906zm14.398438-28.800781-8 10.664062-8-10.664062zm0 0"/><path d="m144 0h16v32h-16zm0 0"/><path d="m67.152344 38.457031 11.3125-11.3125 22.628906 22.628907-11.3125 11.3125zm0 0"/><path d="m40 104h32v16h-32zm0 0"/><path d="m67.148438 185.539062 22.628906-22.628906 11.3125 11.3125-22.628906 22.628906zm0 0"/><path d="m202.910156 174.234375 11.316406-11.316406 22.625 22.628906-11.3125 11.3125zm0 0"/><path d="m232 104h32v16h-32zm0 0"/><path d="m202.914062 49.769531 22.628907-22.625 11.3125 11.3125-22.628907 22.625zm0 0"/><path d="m56 408h24c.003906 3.441406 2.207031 6.496094 5.472656 7.585938l24 8c.8125.273437 1.667969.410156 2.527344.414062h296c13.253906 0 24-10.746094 24-24s-10.746094-24-24-24h-296c-.859375.003906-1.714844.140625-2.527344.414062l-24 8c-3.265625 1.089844-5.46875 4.144532-5.472656 7.585938h-24zm72-16h240v16h-240zm288 8c0 4.417969-3.582031 8-8 8h-24v-16h24c4.417969 0 8 3.582031 8 8zm-320-2.230469 16-5.335937v15.132812l-16-5.335937zm0 0"/><path d="m234.34375 226.34375-24 24c-3.121094 3.125-3.121094 8.1875 0 11.3125l24 24 11.3125-11.3125-18.34375-18.34375 18.34375-18.34375zm0 0"/><path d="m341.65625 285.65625 24-24c3.121094-3.125 3.121094-8.1875 0-11.3125l-24-24-11.3125 11.3125 18.34375 18.34375-18.34375 18.34375zm0 0"/><path d="m264.585938 293.035156 31.96875-80.007812 14.859374 5.9375-31.96875 80.007812zm0 0"/><path d="m224 312h48v16h-48zm0 0"/><path d="m208 344h32v16h-32zm0 0"/><path d="m256 344h32v16h-32zm0 0"/><path d="m192 312h16v16h-16zm0 0"/><path d="m304 344h32v16h-32zm0 0"/><path d="m288 312h64v16h-64zm0 0"/></g></svg>