<svg height="480pt" viewBox="-19 0 479 480" width="480pt" xmlns="http://www.w3.org/2000/svg"><path d="m432.5 376v48c0 26.507812-21.492188 48-48 48s-48-21.492188-48-48v-48zm0 0" fill="#bddbff"/><path d="m384.5 312c26.492188.039062 47.960938 21.507812 48 48v16h-96v-16c0-26.507812 21.492188-48 48-48zm0 0" fill="#bddbff"/><path d="m8.5 312h208v16c0 17.671875-14.328125 32-32 32h-144c-17.671875 0-32-14.328125-32-32zm0 0" fill="#bddbff"/><path d="m40.5 8h144c17.671875 0 32 14.328125 32 32v16h-208v-16c0-17.671875 14.328125-32 32-32zm0 0" fill="#bddbff"/><g fill="#3d9ae2"><path d="m88.5 328h48v16h-48zm0 0"/><path d="m48.5 24h16v16h-16zm0 0"/><path d="m80.5 24h32v16h-32zm0 0"/><path d="m392.5 304.640625v-184.640625c0-30.929688-25.070312-56-56-56s-56 25.070312-56 56v288c-.039062 30.910156-25.089844 55.960938-56 56h-48c-30.910156-.039062-55.960938-25.089844-56-56v-40h64c22.082031-.027344 39.972656-17.917969 40-40v-288c-.027344-22.082031-17.917969-39.9726562-40-40h-144c-22.082031.0273438-39.972656 17.917969-40 40v288c.027344 22.082031 17.917969 39.972656 40 40h64v40c.042969 39.746094 32.253906 71.957031 72 72h48c39.746094-.042969 71.957031-32.253906 72-72v-288c0-22.089844 17.910156-40 40-40s40 17.910156 40 40v184.640625c-27.515625 3.992187-47.945312 27.554687-48 55.359375v64c0 30.929688 25.070312 56 56 56s56-25.070312 56-56v-64c-.054688-27.804688-20.484375-51.367188-48-55.359375zm-184-.640625h-192v-240h192zm-168-288h144c13.253906 0 24 10.746094 24 24v8h-192v-8c0-13.253906 10.746094-24 24-24zm-24 312v-8h192v8c0 13.253906-10.746094 24-24 24h-144c-13.253906 0-24-10.746094-24-24zm368-8c22.082031.027344 39.972656 17.917969 40 40v8h-80v-8c.027344-22.082031 17.917969-39.972656 40-40zm0 144c-22.082031-.027344-39.972656-17.917969-40-40v-40h80v40c-.027344 22.082031-17.917969 39.972656-40 40zm0 0"/><path d="m376.5 336h16v16h-16zm0 0"/><path d="m56.5 168h16v16h-16zm0 0"/><path d="m88.5 168h48v16h-48zm0 0"/><path d="m72.5 200h32v16h-32zm0 0"/><path d="m120.5 200h32v16h-32zm0 0"/><path d="m88.5 232h96v16h-96zm0 0"/><path d="m34.84375 125.65625 16 16 11.3125-11.3125-10.34375-10.34375 10.34375-10.34375-11.3125-11.3125-16 16c-3.121094 3.125-3.121094 8.1875 0 11.3125zm0 0"/><path d="m102.15625 141.65625 16-16c3.121094-3.125 3.121094-8.1875 0-11.3125l-16-16-11.3125 11.3125 10.34375 10.34375-10.34375 10.34375zm0 0"/></g></svg>