<svg height="480pt" viewBox="-96 0 480 480" width="480pt" xmlns="http://www.w3.org/2000/svg"><path d="m280 408v32c0 17.671875-14.328125 32-32 32h-208c-17.671875 0-32-14.328125-32-32v-32zm0 0" fill="#bddbff"/><path d="m280 40v32h-272v-32c0-17.671875 14.328125-32 32-32h208c17.671875 0 32 14.328125 32 32zm0 0" fill="#bddbff"/><g fill="#3d9ae2"><path d="m248 0h-208c-22.082031.0273438-39.9726562 17.917969-40 40v400c.0273438 22.082031 17.917969 39.972656 40 40h208c22.082031-.027344 39.972656-17.917969 40-40v-400c-.027344-22.082031-17.917969-39.9726562-40-40zm-208 16h208c13.253906 0 24 10.746094 24 24v24h-256v-24c0-13.253906 10.746094-24 24-24zm232 64v320h-256v-320zm-24 384h-208c-13.253906 0-24-10.746094-24-24v-24h256v24c0 13.253906-10.746094 24-24 24zm0 0"/><path d="m120 432h48v16h-48zm0 0"/><path d="m48 32h16v16h-16zm0 0"/><path d="m80 32h32v16h-32zm0 0"/><path d="m72 176h16v16h-16zm0 0"/><path d="m104 176h48v16h-48zm0 0"/><path d="m88 208h32v16h-32zm0 0"/><path d="m136 208h32v16h-32zm0 0"/><path d="m104 240h96v16h-96zm0 0"/><path d="m88 272h48v16h-48zm0 0"/><path d="m152 272h32v16h-32zm0 0"/><path d="m120 304h16v16h-16zm0 0"/><path d="m152 304h64v16h-64zm0 0"/><path d="m112 336h80v16h-80zm0 0"/><path d="m50.34375 133.65625 16 16 11.3125-11.3125-10.34375-10.34375 10.34375-10.34375-11.3125-11.3125-16 16c-3.121094 3.125-3.121094 8.1875 0 11.3125zm0 0"/><path d="m117.65625 149.65625 16-16c3.121094-3.125 3.121094-8.1875 0-11.3125l-16-16-11.3125 11.3125 10.34375 10.34375-10.34375 10.34375zm0 0"/></g></svg>