<svg height="480pt" viewBox="0 0 480 480" width="480pt" xmlns="http://www.w3.org/2000/svg"><path d="m319.359375 216.078125c-21.414063 4.9375-42.5625 10.972656-63.359375 18.082031-7.234375 4.601563-9.558594 14.085938-5.269531 21.507813 4.292969 7.425781 13.671875 10.144531 21.269531 6.171875 7.441406-4.238282 44.960938-43.28125 47.359375-45.761719zm-55.359375-104.078125c75.109375 0 136 60.890625 136 136s-60.890625 136-136 136-136-60.890625-136-136 60.890625-136 136-136zm0 0" fill="#bddbff"/><path d="m56 56v64h-48v-48c.027344-8.824219 7.175781-15.972656 16-16zm0 0" fill="#bddbff"/><path d="m56 56v-32c.027344-8.824219 7.175781-15.972656 16-16h384c8.824219.027344 15.972656 7.175781 16 16v48h-416zm0 0" fill="#bddbff"/><g fill="#3d9ae2"><path d="m80 32h16v16h-16zm0 0"/><path d="m112 32h16v16h-16zm0 0"/><path d="m144 32h16v16h-16zm0 0"/><path d="m456 0h-384c-13.253906 0-24 10.746094-24 24v24h-24c-13.253906 0-24 10.746094-24 24v384c0 13.253906 10.746094 24 24 24h384c13.253906 0 24-10.746094 24-24v-24h24c13.253906 0 24-10.746094 24-24v-384c0-13.253906-10.746094-24-24-24zm-384 16h384c4.417969 0 8 3.582031 8 8v40h-400v-40c0-4.417969 3.582031-8 8-8zm-48 48h24v48h-32v-40c0-4.417969 3.582031-8 8-8zm392 392c0 4.417969-3.582031 8-8 8h-384c-4.417969 0-8-3.582031-8-8v-328h32v280c0 13.253906 10.746094 24 24 24h344zm40-40h-384c-4.417969 0-8-3.582031-8-8v-328h400v328c0 4.417969-3.582031 8-8 8zm0 0"/><path d="m264 104c-79.527344 0-144 64.472656-144 144s64.472656 144 144 144 144-64.472656 144-144c-.09375-79.492188-64.507812-143.90625-144-144zm0 272c-70.691406 0-128-57.308594-128-128s57.308594-128 128-128 128 57.308594 128 128c-.082031 70.65625-57.34375 127.917969-128 128zm0 0"/><path d="m256 128h16v16h-16zm0 0"/><path d="m197.070312 148.078125 13.855469-8 8 13.855469-13.855469 8.003906zm0 0"/><path d="m156.078125 194.925781 8-13.855469 13.855469 8-8 13.859376zm0 0"/><path d="m144 240h16v16h-16zm0 0"/><path d="m156.082031 301.066406 13.855469-8 8 13.859375-13.855469 8zm0 0"/><path d="m350.070312 306.929688 8-13.855469 13.855469 8-8 13.859375zm0 0"/><path d="m368 240h16v16h-16zm0 0"/><path d="m350.058594 189.070312 13.859375-8 8 13.855469-13.859375 8zm0 0"/><path d="m309.070312 153.941406 8-13.855468 13.855469 7.996093-7.996093 13.859375zm0 0"/><path d="m317.511719 208.230469c-13.34375 3.28125-57.496094 14.402343-65.511719 18.984375-11.488281 6.628906-15.425781 21.3125-8.800781 32.800781 6.628906 11.488281 21.3125 15.429687 32.800781 8.800781 8-4.625 39.679688-37.328125 49.199219-47.25 2.464843-2.566406 2.933593-6.457031 1.152343-9.539062-1.78125-3.078125-5.382812-4.613282-8.839843-3.761719zm-49.511719 46.699219c-2.476562 1.449218-5.542969 1.464843-8.03125.035156-2.488281-1.429688-4.019531-4.085938-4.015625-6.957032.007813-2.871093 1.550781-5.515624 4.046875-6.9375 11.015625-4.085937 22.273438-7.5 33.703125-10.222656-8.070313 8.539063-16.65625 16.582032-25.703125 24.082032zm0 0"/><path d="m224 304h32v16h-32zm0 0"/><path d="m272 304h32v16h-32zm0 0"/><path d="m192 32h208v16h-208zm0 0"/></g></svg>