<svg height="480pt" viewBox="0 0 480 480" width="480pt" xmlns="http://www.w3.org/2000/svg"><path d="m328 448v24h-176v-24c0-4.417969 3.582031-8 8-8h160c4.417969 0 8 3.582031 8 8zm0 0" fill="#bddbff"/><path d="m296 376 8 64h-128l8-64zm0 0" fill="#bddbff"/><path d="m472 312v32c0 17.671875-14.328125 32-32 32h-400c-17.671875 0-32-14.328125-32-32v-32zm0 0" fill="#bddbff"/><path d="m352 104v32h-25.519531c-2.246094 12.136719-7.015625 23.664062-14 33.839844l18 18.082031-22.558594 22.558594-18.082031-18c-10.175782 6.984375-21.703125 11.753906-33.839844 14v25.519531h-32v-25.519531c-12.136719-2.246094-23.664062-7.015625-33.839844-14l-18.082031 18-22.558594-22.558594 18-18.082031c-6.984375-10.175782-11.753906-21.703125-14-33.839844h-25.519531v-32h25.519531c2.246094-12.136719 7.015625-23.664062 14-33.839844l-18-18.082031 22.558594-22.558594 18.082031 18c10.175782-6.984375 21.703125-11.753906 33.839844-14v-25.519531h32v25.519531c12.136719 2.246094 23.664062 7.015625 33.839844 14l18.082031-18 22.558594 22.558594-18 18.082031c6.984375 10.175782 11.753906 21.703125 14 33.839844zm-64 16c0-26.507812-21.492188-48-48-48s-48 21.492188-48 48 21.492188 48 48 48 48-21.492188 48-48zm0 0" fill="#bddbff"/><g fill="#3d9ae2"><path d="m440 64h-88v16h88c13.253906 0 24 10.746094 24 24v200h-448v-200c0-13.253906 10.746094-24 24-24h88v-16h-88c-22.082031.027344-39.9726562 17.917969-40 40v240c.0273438 22.082031 17.917969 39.972656 40 40h134.9375l-6 48h-8.9375c-8.835938 0-16 7.164062-16 16v16h-16v16h224v-16h-16v-16c0-8.835938-7.164062-16-16-16h-8.9375l-6-48h134.9375c22.082031-.027344 39.972656-17.917969 40-40v-240c-.027344-22.082031-17.917969-39.972656-40-40zm-120 400h-160v-16h160zm-25.0625-32h-109.875l6-48h97.875zm145.0625-64h-400c-13.253906 0-24-10.746094-24-24v-24h448v24c0 13.253906-10.746094 24-24 24zm0 0"/><path d="m424 336h16v16h-16zm0 0"/><path d="m157.320312 71.257812c-4.5625 7.71875-8.003906 16.050782-10.222656 24.742188h-19.097656c-4.417969 0-8 3.582031-8 8v32c0 4.417969 3.582031 8 8 8h19.097656c2.21875 8.691406 5.660156 17.023438 10.222656 24.742188l-13.488281 13.480468c-3.125 3.125-3.125 8.1875 0 11.3125l22.632813 22.632813c3.125 3.125 8.1875 3.125 11.3125 0l13.480468-13.488281c7.71875 4.5625 16.050782 8.003906 24.742188 10.222656v19.097656c0 4.417969 3.582031 8 8 8h32c4.417969 0 8-3.582031 8-8v-19.097656c8.691406-2.21875 17.023438-5.660156 24.742188-10.222656l13.480468 13.488281c3.125 3.125 8.1875 3.125 11.3125 0l22.632813-22.632813c3.125-3.125 3.125-8.1875 0-11.3125l-13.488281-13.480468c4.5625-7.71875 8.003906-16.050782 10.222656-24.742188h19.097656c4.417969 0 8-3.582031 8-8v-32c0-4.417969-3.582031-8-8-8h-19.097656c-2.21875-8.691406-5.660156-17.023438-10.222656-24.742188l13.488281-13.480468c3.125-3.125 3.125-8.1875 0-11.3125l-22.632813-22.632813c-3.125-3.125-8.1875-3.125-11.3125 0l-13.480468 13.488281c-7.71875-4.5625-16.050782-8.003906-24.742188-10.222656v-19.097656c0-4.417969-3.582031-8-8-8h-32c-4.417969 0-8 3.582031-8 8v19.097656c-8.691406 2.21875-17.023438 5.660156-24.742188 10.222656l-13.480468-13.488281c-3.125-3.125-8.1875-3.125-11.3125 0l-22.632813 22.632813c-3.125 3.125-3.125 8.1875 0 11.3125zm15.847657-6.769531-12.367188-12.367187 11.320313-11.320313 12.367187 12.359375c2.726563 2.730469 7.011719 3.121094 10.191407.9375 9.238281-6.371094 19.726562-10.707031 30.769531-12.714844 3.792969-.695312 6.550781-4.003906 6.550781-7.863281v-17.519531h16v17.519531c-.003906 3.863281 2.753906 7.171875 6.550781 7.871094 11.042969 2.007813 21.53125 6.34375 30.769531 12.714844 3.179688 2.183593 7.464844 1.792969 10.191407-.9375l12.367187-12.367188 11.320313 11.320313-12.359375 12.367187c-2.730469 2.726563-3.121094 7.011719-.9375 10.191407 6.371094 9.238281 10.707031 19.726562 12.714844 30.769531.695312 3.792969 4.003906 6.550781 7.863281 6.550781h17.519531v16h-17.519531c-3.863281-.003906-7.171875 2.753906-7.871094 6.550781-2.007813 11.042969-6.34375 21.53125-12.714844 30.769531-2.183593 3.179688-1.792969 7.464844.9375 10.191407l12.367188 12.367187-11.320313 11.320313-12.367187-12.359375c-2.726563-2.730469-7.011719-3.121094-10.191407-.9375-9.238281 6.371094-19.726562 10.707031-30.769531 12.714844-3.792969.695312-6.550781 4.003906-6.550781 7.863281v17.519531h-16v-17.519531c.003906-3.863281-2.753906-7.171875-6.550781-7.871094-11.042969-2.007813-21.53125-6.34375-30.769531-12.714844-3.179688-2.183593-7.464844-1.792969-10.191407.9375l-12.367187 12.367188-11.320313-11.320313 12.359375-12.367187c2.730469-2.726563 3.121094-7.011719.9375-10.191407-6.371094-9.238281-10.707031-19.726562-12.714844-30.769531-.695312-3.792969-4.003906-6.550781-7.863281-6.550781h-17.519531v-16h17.519531c3.863281.003906 7.171875-2.753906 7.871094-6.550781 2.007813-11.042969 6.34375-21.53125 12.714844-30.769531 2.183593-3.179688 1.792969-7.464844-.9375-10.191407zm0 0"/><path d="m240 176c30.929688 0 56-25.070312 56-56s-25.070312-56-56-56-56 25.070312-56 56c.035156 30.914062 25.085938 55.964844 56 56zm0-96c22.089844 0 40 17.910156 40 40s-17.910156 40-40 40-40-17.910156-40-40c.027344-22.082031 17.917969-39.972656 40-40zm0 0"/><path d="m104 272c13.253906 0 24-10.746094 24-24s-10.746094-24-24-24-24 10.746094-24 24 10.746094 24 24 24zm0-32c4.417969 0 8 3.582031 8 8s-3.582031 8-8 8-8-3.582031-8-8 3.582031-8 8-8zm0 0"/><path d="m320 248c0 13.253906 10.746094 24 24 24s24-10.746094 24-24-10.746094-24-24-24-24 10.746094-24 24zm32 0c0 4.417969-3.582031 8-8 8s-8-3.582031-8-8 3.582031-8 8-8 8 3.582031 8 8zm0 0"/><path d="m376 160c-13.253906 0-24 10.746094-24 24s10.746094 24 24 24 24-10.746094 24-24-10.746094-24-24-24zm0 32c-4.417969 0-8-3.582031-8-8s3.582031-8 8-8 8 3.582031 8 8-3.582031 8-8 8zm0 0"/><path d="m48 224h16v48h-16zm0 0"/><path d="m144 224h16v48h-16zm0 0"/><path d="m48 160h16v48h-16zm0 0"/><path d="m80 160h16v48h-16zm0 0"/><path d="m384 224h16v48h-16zm0 0"/><path d="m416 224h16v48h-16zm0 0"/><path d="m416 160h16v48h-16zm0 0"/></g></svg>