<svg height="480pt" viewBox="-31 0 479 480" width="480pt" xmlns="http://www.w3.org/2000/svg"><g fill="#bddbff"><path d="m408.5 40v304c0 17.671875-14.328125 32-32 32h-16v-288c0-17.671875-14.328125-32-32-32h-224v-16c0-17.671875 14.328125-32 32-32h240c17.671875 0 32 14.328125 32 32zm0 0"/><path d="m360.5 376v16c0 17.671875-14.328125 32-32 32h-16v-256l-64-64h-192v-16c0-17.671875 14.328125-32 32-32h240c17.671875 0 32 14.328125 32 32zm0 0"/><path d="m264.5 304v32h-48v-32zm0 0"/><path d="m200.5 408v16h-80v-32h80zm0 0"/><path d="m104.5 304v32h-48v-32zm0 0"/><path d="m200.5 256-40 24-40-24 40-24zm0 0"/><path d="m200.5 152v32h-80v-32zm0 0"/></g><path d="m376.5 0h-240c-22.082031.0273438-39.972656 17.917969-40 40v8h-8c-22.082031.027344-39.972656 17.917969-40 40v8h-8c-22.082031.027344-39.972656 17.917969-40 40v304c.027344 22.082031 17.917969 39.972656 40 40h240c22.082031-.027344 39.972656-17.917969 40-40v-8h8c22.082031-.027344 39.972656-17.917969 40-40v-8h8c22.082031-.027344 39.972656-17.917969 40-40v-304c-.027344-22.082031-17.917969-39.9726562-40-40zm-96 464h-240c-13.253906 0-24-10.746094-24-24v-304c0-13.253906 10.746094-24 24-24h200v40c0 13.253906 10.746094 24 24 24h40v264c0 13.253906-10.746094 24-24 24zm-24-340.6875 36.6875 36.6875h-28.6875c-4.417969 0-8-3.582031-8-8zm96 268.6875c0 13.253906-10.746094 24-24 24h-8v-248c0-2.121094-.84375-4.15625-2.34375-5.65625l-64-64c-1.5-1.5-3.535156-2.34375-5.65625-2.34375h-184v-8c0-13.253906 10.746094-24 24-24h240c13.253906 0 24 10.746094 24 24zm48-48c0 13.253906-10.746094 24-24 24h-8v-280c-.027344-22.082031-17.917969-39.972656-40-40h-216v-8c0-13.253906 10.746094-24 24-24h240c13.253906 0 24 10.746094 24 24zm0 0" fill="#3d9ae2"/><path d="m264.5 296h-16v-40c0-4.417969-3.582031-8-8-8h-37.785156l-34.214844-20.527344v-35.472656h32c4.417969 0 8-3.582031 8-8v-32c0-4.417969-3.582031-8-8-8h-80c-4.417969 0-8 3.582031-8 8v32c0 4.417969 3.582031 8 8 8h32v35.472656l-34.214844 20.527344h-37.785156c-4.417969 0-8 3.582031-8 8v40h-16c-4.417969 0-8 3.582031-8 8v32c0 4.417969 3.582031 8 8 8h16v64c0 4.417969 3.582031 8 8 8h32v8c0 4.417969 3.582031 8 8 8h80c4.417969 0 8-3.582031 8-8v-8h32c4.417969 0 8-3.582031 8-8v-64h16c4.417969 0 8-3.582031 8-8v-32c0-4.417969-3.582031-8-8-8zm-136-136h64v16h-64zm32 81.328125 24.457031 14.671875-24.457031 14.671875-24.457031-14.671875zm-96 70.671875h32v16h-32zm128 104h-64v-16h64zm40-16h-24v-8c0-4.417969-3.582031-8-8-8h-80c-4.417969 0-8 3.582031-8 8v8h-24v-56h16c4.417969 0 8-3.582031 8-8v-32c0-4.417969-3.582031-8-8-8h-16v-32h29.785156l38.09375 22.855469c2.535156 1.523437 5.707032 1.523437 8.242188 0l38.09375-22.855469h29.785156v32h-16c-4.417969 0-8 3.582031-8 8v32c0 4.417969 3.582031 8 8 8h16zm24-72h-32v-16h32zm0 0" fill="#3d9ae2"/></svg>