<svg height="480pt" viewBox="-4 0 480 480" width="480pt" xmlns="http://www.w3.org/2000/svg"><path d="m360 472h-336c-8.824219-.027344-15.972656-7.175781-16-16v-88c.027344-8.824219 7.175781-15.972656 16-16h336c8.824219.027344 15.972656 7.175781 16 16v88c-.027344 8.824219-7.175781 15.972656-16 16zm0 0" fill="#bddbff"/><path d="m120 8h48l5.199219 36.238281c7.230469 2.070313 14.207031 4.941407 20.800781 8.5625l29.199219-21.921875 33.921875 33.921875-21.921875 29.199219c3.621093 6.59375 6.492187 13.570312 8.5625 20.800781l36.238281 5.199219v48l-36.238281 5.199219c-2.070313 7.230469-4.941407 14.207031-8.5625 20.800781l21.921875 29.199219-33.921875 33.921875-29.199219-21.921875c-6.59375 3.621093-13.570312 6.492187-20.800781 8.5625l-5.199219 36.238281h-48l-5.199219-36.238281c-7.230469-2.070313-14.207031-4.941407-20.800781-8.5625l-29.199219 21.921875-33.921875-33.921875 21.921875-29.199219c-3.621093-6.59375-6.492187-13.570312-8.5625-20.800781l-36.238281-5.199219v-48l36.238281-5.199219c2.070313-7.230469 4.941407-14.207031 8.5625-20.800781l-21.921875-29.199219 33.921875-33.921875 29.199219 21.921875c6.59375-3.621093 13.570312-6.492187 20.800781-8.5625zm0 0" fill="#bddbff"/><g fill="#3d9ae2"><path d="m90.34375 114.34375-24 24c-3.121094 3.125-3.121094 8.1875 0 11.3125l24 24 11.3125-11.3125-18.34375-18.34375 18.34375-18.34375zm0 0"/><path d="m221.65625 138.34375-24-24-11.3125 11.3125 18.34375 18.34375-18.34375 18.34375 11.3125 11.3125 24-24c3.121094-3.125 3.121094-8.1875 0-11.3125zm0 0"/><path d="m120.589844 181.035156 31.96875-80.007812 14.859375 5.9375-31.972657 80.007812zm0 0"/><path d="m136 32h16v16h-16zm0 0"/><path d="m59.148438 70.464844 11.3125-11.316406 11.316406 11.316406-11.316406 11.3125zm0 0"/><path d="m32 136h16v16h-16zm0 0"/><path d="m59.144531 217.53125 11.3125-11.3125 11.316407 11.3125-11.316407 11.3125zm0 0"/><path d="m136 240h16v16h-16zm0 0"/><path d="m206.21875 217.535156 11.316406-11.3125 11.3125 11.3125-11.3125 11.316406zm0 0"/><path d="m240 136h16v16h-16zm0 0"/><path d="m206.222656 70.46875 11.316406-11.3125 11.3125 11.3125-11.3125 11.3125zm0 0"/><path d="m80 440h224v16h-224zm0 0"/><path d="m336 440h-16v16h24c4.417969 0 8-3.582031 8-8v-32h-16zm0 0"/><path d="m32 440h32v16h-32zm0 0"/><path d="m40 408h16v16h-16zm0 0"/><path d="m72 408h16v16h-16zm0 0"/><path d="m104 408h16v16h-16zm0 0"/><path d="m136 408h16v16h-16zm0 0"/><path d="m168 408h16v16h-16zm0 0"/><path d="m200 408h16v16h-16zm0 0"/><path d="m232 408h16v16h-16zm0 0"/><path d="m264 408h16v16h-16zm0 0"/><path d="m296 408h16v16h-16zm0 0"/><path d="m40 376h16v16h-16zm0 0"/><path d="m72 376h16v16h-16zm0 0"/><path d="m104 376h16v16h-16zm0 0"/><path d="m136 376h16v16h-16zm0 0"/><path d="m168 376h16v16h-16zm0 0"/><path d="m200 376h16v16h-16zm0 0"/><path d="m232 376h16v16h-16zm0 0"/><path d="m264 376h16v16h-16zm0 0"/><path d="m296 376h16v16h-16zm0 0"/><path d="m416 264h-64c-13.253906 0-24-10.746094-24-24s10.746094-24 24-24h80c22.089844 0 40-17.910156 40-40s-17.910156-40-40-40h-144v-16c0-3.980469-2.925781-7.355469-6.863281-7.921875l-31.257813-4.460937c-1.484375-4.371094-3.238281-8.648438-5.253906-12.800782l18.910156-25.214844c2.386719-3.183593 2.074219-7.632812-.734375-10.449218l-33.953125-33.953125c-2.816406-2.808594-7.265625-3.121094-10.449218-.734375l-25.230469 18.910156c-4.152344-2.015625-8.429688-3.769531-12.800781-5.253906l-4.445313-31.257813c-.566406-3.9375-3.941406-6.863281-7.921875-6.863281h-48c-3.980469 0-7.355469 2.925781-7.921875 6.863281l-4.460937 31.257813c-4.371094 1.484375-8.648438 3.238281-12.800782 5.253906l-25.214844-18.910156c-3.183593-2.386719-7.632812-2.074219-10.449218.734375l-33.953125 33.953125c-2.808594 2.816406-3.121094 7.265625-.734375 10.449218l18.910156 25.230469c-2.015625 4.152344-3.769531 8.429688-5.253906 12.800781l-31.257813 4.464844c-3.933593.5625-6.8554685 3.929688-6.863281 7.902344v48c0 3.980469 2.925781 7.355469 6.863281 7.921875l31.257813 4.460937c1.484375 4.371094 3.238281 8.648438 5.253906 12.800782l-18.910156 25.214844c-2.386719 3.183593-2.074219 7.632812.734375 10.449218l33.953125 33.953125c2.816406 2.808594 7.265625 3.121094 10.449218.734375l25.222657-18.910156c4.152343 2.015625 8.429687 3.769531 12.800781 5.253906l4.464844 31.257813c.5625 3.9375 3.933594 6.859375 7.910156 6.863281h48c3.980469 0 7.355469-2.925781 7.921875-6.863281l4.460937-31.257813c4.371094-1.484375 8.648438-3.238281 12.800782-5.253906l25.214844 18.910156c3.183593 2.386719 7.632812 2.074219 10.449218-.734375l33.953125-33.953125c2.808594-2.816406 3.121094-7.265625.734375-10.449218l-18.910156-25.222657c2.015625-4.152343 3.769531-8.429687 5.253906-12.800781l31.257813-4.464844c3.9375-.5625 6.859375-3.933594 6.863281-7.910156v-16h144c13.253906 0 24 10.746094 24 24s-10.746094 24-24 24h-80c-22.089844 0-40 17.910156-40 40s17.910156 40 40 40h64c22.082031.027344 39.972656 17.917969 40 40v24c-.027344 22.082031-17.917969 39.972656-40 40h-8v-8c0-4.417969-3.582031-8-8-8h-16c0-13.253906-10.746094-24-24-24h-336c-13.253906 0-24 10.746094-24 24v88c0 13.253906 10.746094 24 24 24h336c13.253906 0 24-10.746094 24-24v-40h16c4.417969 0 8-3.582031 8-8v-8h8c30.910156-.039062 55.960938-25.089844 56-56v-24c-.039062-30.910156-25.089844-55.960938-56-56zm-144-102.9375-29.359375 4.183594c-3.105469.449218-5.667969 2.667968-6.542969 5.683594-1.925781 6.667968-4.574218 13.105468-7.898437 19.199218-1.507813 2.753906-1.269531 6.136719.617187 8.648438l17.757813 23.6875-24.125 24.128906-23.6875-17.792969c-2.511719-1.886719-5.894531-2.125-8.648438-.617187-6.09375 3.324218-12.53125 5.972656-19.203125 7.894531-3.011718.878906-5.230468 3.4375-5.679687 6.546875l-4.167969 29.375h-34.125l-4.183594-29.359375c-.449218-3.105469-2.667968-5.667969-5.683594-6.542969-6.667968-1.925781-13.105468-4.574218-19.199218-7.898437-2.753906-1.507813-6.136719-1.269531-8.648438.617187l-23.6875 17.757813-24.109375-24.125 17.773438-23.6875c1.886719-2.511719 2.125-5.894531.617187-8.648438-3.324218-6.09375-5.972656-12.53125-7.894531-19.203125-.878906-3.011718-3.4375-5.230468-6.546875-5.679687l-29.375-4.167969v-34.125l29.359375-4.183594c3.105469-.449218 5.667969-2.667968 6.542969-5.683594 1.925781-6.667968 4.574218-13.109374 7.90625-19.199218 1.503906-2.746094 1.265625-6.121094-.609375-8.632813l-17.757813-23.6875 24.125-24.125 23.671875 17.773438c2.511719 1.886719 5.894531 2.132812 8.648438.625 6.09375-3.332031 12.53125-5.980469 19.203125-7.902344 3.011718-.878906 5.230468-3.4375 5.679687-6.546875l4.167969-29.375h34.125l4.183594 29.359375c.449218 3.105469 2.667968 5.667969 5.683594 6.542969 6.667968 1.925781 13.109374 4.574218 19.199218 7.90625 2.746094 1.503906 6.121094 1.265625 8.632813-.609375l23.6875-17.757813 24.125 24.125-17.773438 23.671875c-1.886719 2.511719-2.132812 5.894531-.625 8.648438 3.332031 6.09375 5.980469 12.53125 7.902344 19.203125.878906 3.011718 3.4375 5.230468 6.546875 5.679687l29.359375 4.183594zm96 294.9375c0 4.417969-3.582031 8-8 8h-336c-4.417969 0-8-3.582031-8-8v-88c0-4.417969 3.582031-8 8-8h336c4.417969 0 8 3.582031 8 8zm24-56h-8v-16h8zm0 0"/></g></svg>