<svg height="480pt" viewBox="0 -63 480 479" width="480pt" xmlns="http://www.w3.org/2000/svg"><path d="m144 152.5 39.601562 39.601562c-16.015624 16.015626-40.105468 20.808594-61.03125 12.140626-20.929687-8.667969-34.570312-29.089844-34.570312-51.742188zm0 0" fill="#bddbff"/><path d="m144 96.5c22.652344 0 43.074219 13.640625 51.742188 34.570312 8.667968 20.925782 3.875 45.015626-12.140626 61.03125l-39.601562-39.601562zm0 0" fill="#bddbff"/><path d="m32 296.5h440v32c-.027344 8.824219-7.175781 15.972656-16 16h-432c-8.824219-.027344-15.972656-7.175781-16-16v-32zm0 0" fill="#bddbff"/><g fill="#3d9ae2"><path d="m472 288.5h-16v-248c-.027344-22.082031-17.917969-39.972656-40-40h-352c-22.082031.027344-39.972656 17.917969-40 40v248h-16c-4.417969 0-8 3.582031-8 8v32c0 13.253906 10.746094 24 24 24h432c13.253906 0 24-10.746094 24-24v-32c0-4.417969-3.582031-8-8-8zm-432-248c0-13.253906 10.746094-24 24-24h352c13.253906 0 24 10.746094 24 24v248h-400zm424 288c0 4.417969-3.582031 8-8 8h-432c-4.417969 0-8-3.582031-8-8v-24h448zm0 0"/><path d="m208 312.5h64v16h-64zm0 0"/><path d="m144 88.5c-35.347656 0-64 28.652344-64 64s28.652344 64 64 64 64-28.652344 64-64c-.039062-35.328125-28.671875-63.960938-64-64zm-8 16.71875v39.28125h-39.28125c3.4375-20.101562 19.179688-35.84375 39.28125-39.28125zm-39.28125 55.28125h44l31.082031 31.078125c-13.441406 9.621094-30.894531 11.625-46.167969 5.300781-15.269531-6.320312-26.203124-20.074218-28.914062-36.378906zm86.402344 19.769531-31.121094-31.082031v-44c16.292969 2.71875 30.035156 13.640625 36.355469 28.902344 6.320312 15.261718 4.328125 32.703125-5.277344 46.144531zm0 0"/><path d="m392 88.5h-16v104h-16v-88h-16v88h-16v-64h-16v64h-16v-40h-16v40h-16v-120h-16v128c0 4.417969 3.582031 8 8 8h152v-16h-16zm0 0"/><path d="m192 72.5h32v16h-32zm0 0"/><path d="m192 48.5h32v16h-32zm0 0"/><path d="m72 72.5h32v16h-32zm0 0"/><path d="m72 48.5h32v16h-32zm0 0"/><path d="m88 224.5h32v16h-32zm0 0"/><path d="m88 248.5h32v16h-32zm0 0"/><path d="m256 224.5h64v16h-64zm0 0"/><path d="m256 248.5h16v16h-16zm0 0"/><path d="m288 248.5h32v16h-32zm0 0"/></g></svg>