<svg height="480pt" viewBox="0 -63 480 479" width="480pt" xmlns="http://www.w3.org/2000/svg"><path d="m456 344.5h-432c-8.824219-.027344-15.972656-7.175781-16-16v-32h464v32c-.027344 8.824219-7.175781 15.972656-16 16zm0 0" fill="#bddbff"/><g fill="#3d9ae2"><path d="m472 288.5h-16v-248c-.027344-22.082031-17.917969-39.972656-40-40h-352c-22.082031.027344-39.972656 17.917969-40 40v248h-16c-4.417969 0-8 3.582031-8 8v32c0 13.253906 10.746094 24 24 24h432c13.253906 0 24-10.746094 24-24v-32c0-4.417969-3.582031-8-8-8zm-432-248c0-13.253906 10.746094-24 24-24h352c13.253906 0 24 10.746094 24 24v248h-400zm424 288c0 4.417969-3.582031 8-8 8h-432c-4.417969 0-8-3.582031-8-8v-24h448zm0 0"/><path d="m208 312.5h64v16h-64zm0 0"/><path d="m176 112.5c13.253906 0 24 10.746094 24 24h16c0-22.089844-17.910156-40-40-40s-40 17.910156-40 40v32c0 22.089844 17.910156 40 40 40s40-17.910156 40-40h-16c0 13.253906-10.746094 24-24 24s-24-10.746094-24-24v-32c0-13.253906 10.746094-24 24-24zm0 0"/><path d="m264 104.5h-16v16h-16v16h16v16h16v-16h16v-16h-16zm0 0"/><path d="m328 104.5h-16v16h-16v16h16v16h16v-16h16v-16h-16zm0 0"/></g></svg>