<svg height="480pt" viewBox="0 -31 480 479" width="480pt" xmlns="http://www.w3.org/2000/svg"><path d="m32 360.5h440v32c-.027344 8.824219-7.175781 15.972656-16 16h-432c-8.824219-.027344-15.972656-7.175781-16-16v-32zm0 0" fill="#bddbff"/><path d="m232 104.5h112v48h-112zm0 0" fill="#bddbff"/><path d="m104 8.5h272c8.824219.027344 15.972656 7.175781 16 16v32h-304v-32c.027344-8.824219 7.175781-15.972656 16-16zm0 0" fill="#bddbff"/><g fill="#3d9ae2"><path d="m472 352.5h-16v-248c-.027344-22.082031-17.917969-39.972656-40-40h-16v-40c0-13.253906-10.746094-24-24-24h-272c-13.253906 0-24 10.746094-24 24v40h-16c-22.082031.027344-39.972656 17.917969-40 40v248h-16c-4.417969 0-8 3.582031-8 8v32c0 13.253906 10.746094 24 24 24h432c13.253906 0 24-10.746094 24-24v-32c0-4.417969-3.582031-8-8-8zm-376-288h288v200c0 4.417969-3.582031 8-8 8h-272c-4.417969 0-8-3.582031-8-8zm8-48h272c4.417969 0 8 3.582031 8 8v24h-288v-24c0-4.417969 3.582031-8 8-8zm-64 88c0-13.253906 10.746094-24 24-24h16v184c0 13.253906 10.746094 24 24 24h272c13.253906 0 24-10.746094 24-24v-184h16c13.253906 0 24 10.746094 24 24v248h-400zm424 288c0 4.417969-3.582031 8-8 8h-432c-4.417969 0-8-3.582031-8-8v-24h448zm0 0"/><path d="m208 376.5h64v16h-64zm0 0"/><path d="m112 24.5h16v16h-16zm0 0"/><path d="m144 24.5h16v16h-16zm0 0"/><path d="m176 24.5h16v16h-16zm0 0"/><path d="m128 112.5h16v16h-16zm0 0"/><path d="m160 112.5h32v16h-32zm0 0"/><path d="m128 144.5h64v16h-64zm0 0"/><path d="m232 160.5h112c4.417969 0 8-3.582031 8-8v-48c0-4.417969-3.582031-8-8-8h-112c-4.417969 0-8 3.582031-8 8v48c0 4.417969 3.582031 8 8 8zm8-48h96v32h-96zm0 0"/><path d="m224 192.5h32v16h-32zm0 0"/><path d="m272 192.5h80v16h-80zm0 0"/><path d="m224 224.5h64v16h-64zm0 0"/><path d="m304 224.5h48v16h-48zm0 0"/><path d="m128 192.5h64v16h-64zm0 0"/><path d="m128 224.5h64v16h-64zm0 0"/></g></svg>