<svg height="480pt" viewBox="0 0 480 480" width="480pt" xmlns="http://www.w3.org/2000/svg"><path d="m472 280v32h-160v-48h144c8.824219.027344 15.972656 7.175781 16 16zm0 0" fill="#bddbff"/><path d="m24 144h272c8.824219.027344 15.972656 7.175781 16 16v32h-304v-32c.027344-8.824219 7.175781-15.972656 16-16zm0 0" fill="#bddbff"/><path d="m184 8h192c8.824219.027344 15.972656 7.175781 16 16v32h-224v-32c.027344-8.824219 7.175781-15.972656 16-16zm0 0" fill="#bddbff"/><g fill="#3d9ae2"><path d="m32 160h16v16h-16zm0 0"/><path d="m64 160h16v16h-16zm0 0"/><path d="m96 160h16v16h-16zm0 0"/><path d="m106.34375 285.65625 11.3125-11.3125-18.34375-18.34375 18.34375-18.34375-11.3125-11.3125-24 24c-3.121094 3.125-3.121094 8.1875 0 11.3125zm0 0"/><path d="m213.65625 226.34375-11.3125 11.3125 18.34375 18.34375-18.34375 18.34375 11.3125 11.3125 24-24c3.121094-3.125 3.121094-8.1875 0-11.3125zm0 0"/><path d="m136.585938 293.042969 31.96875-80.011719 14.859374 5.9375-31.96875 80.007812zm0 0"/><path d="m96 312h48v16h-48zm0 0"/><path d="m80 344h32v16h-32zm0 0"/><path d="m128 344h32v16h-32zm0 0"/><path d="m48 376h96v16h-96zm0 0"/><path d="m64 312h16v16h-16zm0 0"/><path d="m176 344h32v16h-32zm0 0"/><path d="m160 376h32v16h-32zm0 0"/><path d="m208 376h32v16h-32zm0 0"/><path d="m160 312h64v16h-64zm0 0"/><path d="m456 256h-136v-32h56c13.253906 0 24-10.746094 24-24v-176c0-13.253906-10.746094-24-24-24h-192c-13.253906 0-24 10.746094-24 24v112h-136c-13.253906 0-24 10.746094-24 24v240c0 13.253906 10.746094 24 24 24h216v32c0 13.253906 10.746094 24 24 24h192c13.253906 0 24-10.746094 24-24v-176c0-13.253906-10.746094-24-24-24zm0 16c4.417969 0 8 3.582031 8 8v24h-144v-32zm-272-256h192c4.417969 0 8 3.582031 8 8v24h-208v-24c0-4.417969 3.582031-8 8-8zm-8 48h208v136c0 4.417969-3.582031 8-8 8h-56v-48c0-13.253906-10.746094-24-24-24h-120zm-152 88h272c4.417969 0 8 3.582031 8 8v24h-288v-24c0-4.417969 3.582031-8 8-8zm-8 248v-200h288v200c0 4.417969-3.582031 8-8 8h-272c-4.417969 0-8-3.582031-8-8zm440 64h-192c-4.417969 0-8-3.582031-8-8v-32h40c13.253906 0 24-10.746094 24-24v-80h144v136c0 4.417969-3.582031 8-8 8zm0 0"/><path d="m192 24h16v16h-16zm0 0"/><path d="m216 24h16v16h-16zm0 0"/><path d="m240 24h16v16h-16zm0 0"/></g></svg>